%TF.GenerationSoftware,Altium Limited,Altium Designer,25.2.1 (25)*%
G04 Layer_Physical_Order=2*
G04 Layer_Color=32768*
%FSLAX25Y25*%
%MOIN*%
%TF.SameCoordinates,F6C81A79-D505-4479-B840-BDF532C21910*%
%TF.FilePolarity,Negative*%
%TF.FileFunction,Copper,L2,Inr,Plane*%
%TF.Part,Single*%
G01*
G75*
%TA.AperFunction,NonConductor*%
%ADD70C,0.04000*%
%ADD71C,0.05000*%
%ADD72R,0.06693X0.06299*%
%ADD73R,1.17323X0.95276*%
%ADD74R,1.10630X0.94488*%
%ADD75R,1.80709X0.84646*%
%TA.AperFunction,ComponentPad*%
%ADD76C,0.07969*%
G04:AMPARAMS|DCode=77|XSize=69.685mil|YSize=69.685mil|CornerRadius=0mil|HoleSize=0mil|Usage=FLASHONLY|Rotation=0.000|XOffset=0mil|YOffset=0mil|HoleType=Round|Shape=Relief|Width=15mil|Gap=10mil|Entries=4|*
%AMTHD77*
7,0,0,0.06969,0.04969,0.01500,45*
%
%ADD77THD77*%
%ADD78C,0.14268*%
%AMTHOVALD79*
21,1,0.07874,0.08937,0,0,90.0*
1,1,0.08937,0.00000,-0.03937*
1,1,0.08937,0.00000,0.03937*
21,0,0.07874,0.06937,0,0,90.0*
1,0,0.06937,0.00000,-0.03937*
1,0,0.06937,0.00000,0.03937*
4,0,4,0.00530,-0.03407,0.03690,-0.06566,0.02629,-0.07627,-0.00530,-0.04467,0.00530,-0.03407,0.0*
4,0,4,0.00530,0.04467,-0.02629,0.07627,-0.03690,0.06566,-0.00530,0.03407,0.00530,0.04467,0.0*
4,0,4,0.00530,-0.04467,-0.02629,-0.07627,-0.03690,-0.06566,-0.00530,-0.03407,0.00530,-0.04467,0.0*
4,0,4,0.00530,0.03407,0.03690,0.06566,0.02629,0.07627,-0.00530,0.04467,0.00530,0.03407,0.0*
%
%ADD79THOVALD79*%

%AMTHOVALD80*
21,1,0.07087,0.09724,0,0,180.0*
1,1,0.09724,0.03543,0.00000*
1,1,0.09724,-0.03543,0.00000*
21,0,0.07087,0.07724,0,0,180.0*
1,0,0.07724,0.03543,0.00000*
1,0,0.07724,-0.03543,0.00000*
4,0,4,0.03013,0.00530,0.06451,0.03968,0.07512,0.02908,0.04074,-0.00530,0.03013,0.00530,0.0*
4,0,4,-0.04074,0.00530,-0.07512,-0.02908,-0.06451,-0.03968,-0.03013,-0.00530,-0.04074,0.00530,0.0*
4,0,4,0.04074,0.00530,0.07512,-0.02908,0.06451,-0.03968,0.03013,-0.00530,0.04074,0.00530,0.0*
4,0,4,-0.03013,0.00530,-0.06451,0.03968,-0.07512,0.02908,-0.04074,-0.00530,-0.03013,0.00530,0.0*
%
%ADD80THOVALD80*%

%ADD81O,0.10724X0.11906*%
%ADD82C,0.09543*%
%ADD83C,0.09425*%
%ADD84C,0.09150*%
G04:AMPARAMS|DCode=85|XSize=81.496mil|YSize=81.496mil|CornerRadius=0mil|HoleSize=0mil|Usage=FLASHONLY|Rotation=0.000|XOffset=0mil|YOffset=0mil|HoleType=Round|Shape=Relief|Width=15mil|Gap=10mil|Entries=4|*
%AMTHD85*
7,0,0,0.08150,0.06150,0.01500,45*
%
%ADD85THD85*%
%AMTHOVALD86*
21,1,0.07874,0.08937,0,0,180.0*
1,1,0.08937,0.03937,0.00000*
1,1,0.08937,-0.03937,0.00000*
21,0,0.07874,0.06937,0,0,180.0*
1,0,0.06937,0.03937,0.00000*
1,0,0.06937,-0.03937,0.00000*
4,0,4,0.03407,0.00530,0.06566,0.03690,0.07627,0.02629,0.04467,-0.00530,0.03407,0.00530,0.0*
4,0,4,-0.04467,0.00530,-0.07627,-0.02629,-0.06566,-0.03690,-0.03407,-0.00530,-0.04467,0.00530,0.0*
4,0,4,0.04467,0.00530,0.07627,-0.02629,0.06566,-0.03690,0.03407,-0.00530,0.04467,0.00530,0.0*
4,0,4,-0.03407,0.00530,-0.06566,0.03690,-0.07627,0.02629,-0.04467,-0.00530,-0.03407,0.00530,0.0*
%
%ADD86THOVALD86*%

%AMTHOVALD87*
21,1,0.07087,0.09724,0,0,270.0*
1,1,0.09724,0.00000,0.03543*
1,1,0.09724,0.00000,-0.03543*
21,0,0.07087,0.07724,0,0,270.0*
1,0,0.07724,0.00000,0.03543*
1,0,0.07724,0.00000,-0.03543*
4,0,4,-0.00530,0.03013,-0.03968,0.06451,-0.02908,0.07512,0.00530,0.04074,-0.00530,0.03013,0.0*
4,0,4,-0.00530,-0.04074,0.02908,-0.07512,0.03968,-0.06451,0.00530,-0.03013,-0.00530,-0.04074,0.0*
4,0,4,-0.00530,0.04074,0.02908,0.07512,0.03968,0.06451,0.00530,0.03013,-0.00530,0.04074,0.0*
4,0,4,-0.00530,-0.03013,-0.03968,-0.06451,-0.02908,-0.07512,0.00530,-0.04074,-0.00530,-0.03013,0.0*
%
%ADD87THOVALD87*%

%ADD88O,0.11906X0.10724*%
%ADD89C,0.12890*%
%ADD90C,0.09937*%
%TA.AperFunction,ViaPad*%
%ADD91C,0.07181*%
G04:AMPARAMS|DCode=92|XSize=63.779mil|YSize=63.779mil|CornerRadius=0mil|HoleSize=0mil|Usage=FLASHONLY|Rotation=0.000|XOffset=0mil|YOffset=0mil|HoleType=Round|Shape=Relief|Width=15mil|Gap=10mil|Entries=4|*
%AMTHD92*
7,0,0,0.06378,0.04378,0.01500,45*
%
%ADD92THD92*%
%ADD93C,0.07378*%
G04:AMPARAMS|DCode=94|XSize=61.811mil|YSize=61.811mil|CornerRadius=0mil|HoleSize=0mil|Usage=FLASHONLY|Rotation=0.000|XOffset=0mil|YOffset=0mil|HoleType=Round|Shape=Relief|Width=15mil|Gap=10mil|Entries=4|*
%AMTHD94*
7,0,0,0.06181,0.04181,0.01500,45*
%
%ADD94THD94*%
D70*
X297165Y153543D02*
X397638D01*
X297165D02*
X297165Y423386D01*
X-1339D02*
X297165D01*
X-1339D02*
X-1339Y118661D01*
X25157D01*
Y49882D02*
Y118661D01*
X0Y49882D02*
X25157D01*
X0Y0D02*
Y49882D01*
X293307Y394D02*
Y420866D01*
X0Y0D02*
X397638D01*
Y153543D01*
D71*
X295276Y394D02*
X295276Y154331D01*
D72*
X307283Y43701D02*
D03*
X281693Y86614D02*
D03*
D73*
X235827Y375984D02*
D03*
D74*
X103740Y298031D02*
D03*
D75*
X88386Y379724D02*
D03*
D76*
X353528Y115551D02*
D03*
Y129693D02*
D03*
D77*
X339386D02*
D03*
D78*
X13386Y215551D02*
D03*
X185827Y18602D02*
D03*
D79*
X31102Y215551D02*
D03*
D80*
X43701Y196653D02*
D03*
D81*
X55905Y219882D02*
D03*
D82*
X133858Y266142D02*
D03*
X94488D02*
D03*
X74803Y344882D02*
D03*
X153543D02*
D03*
X240118Y319331D02*
D03*
Y359331D02*
D03*
Y389331D02*
D03*
X270118Y319331D02*
D03*
Y379331D02*
D03*
X187756Y319331D02*
D03*
Y359331D02*
D03*
Y389331D02*
D03*
X217756Y319331D02*
D03*
Y379331D02*
D03*
X14173Y11614D02*
D03*
X25984D02*
D03*
D83*
X307087Y20079D02*
D03*
Y25984D02*
D03*
Y31890D02*
D03*
Y37795D02*
D03*
Y43701D02*
D03*
Y49606D02*
D03*
X281496Y63386D02*
D03*
Y69291D02*
D03*
Y75197D02*
D03*
Y81102D02*
D03*
Y87008D02*
D03*
Y92913D02*
D03*
D84*
X152235Y108535D02*
D03*
X22244Y150591D02*
D03*
Y170276D02*
D03*
X35433Y274803D02*
D03*
Y329921D02*
D03*
D85*
X138316Y94615D02*
D03*
X15748Y274803D02*
D03*
Y329921D02*
D03*
D86*
X185827Y36319D02*
D03*
D87*
X204724Y48917D02*
D03*
D88*
X181496Y61122D02*
D03*
D89*
X245118Y403543D02*
D03*
X265118D02*
D03*
X192756D02*
D03*
X212756D02*
D03*
X15748Y400000D02*
D03*
Y380000D02*
D03*
D90*
X35433Y400000D02*
D03*
X153543D02*
D03*
D91*
X51968Y153543D02*
D03*
X257087Y151575D02*
D03*
X271654Y115354D02*
D03*
X253544Y36024D02*
D03*
X224410Y73979D02*
D03*
Y71011D02*
D03*
X155905Y78740D02*
D03*
X244882Y137795D02*
D03*
X166929Y83071D02*
D03*
X231102Y189370D02*
D03*
X225984Y83071D02*
D03*
X231496Y178740D02*
D03*
X282283Y193020D02*
D03*
Y190051D02*
D03*
X179134Y231102D02*
D03*
X264961Y65748D02*
D03*
D92*
X355966Y67874D02*
D03*
X327165Y38189D02*
D03*
X318898D02*
D03*
X318504Y8268D02*
D03*
X335433Y38189D02*
D03*
X189764Y154331D02*
D03*
X181890Y158661D02*
D03*
X201575Y170472D02*
D03*
X221654Y216535D02*
D03*
X39764Y220079D02*
D03*
Y227953D02*
D03*
Y212205D02*
D03*
X218110Y300394D02*
D03*
X266535Y208661D02*
D03*
X240551Y33858D02*
D03*
X248819Y113386D02*
D03*
X264173Y157087D02*
D03*
X283465Y131890D02*
D03*
Y123228D02*
D03*
X185039Y120866D02*
D03*
Y128740D02*
D03*
X245275Y177559D02*
D03*
X227559Y197862D02*
D03*
X247638Y274410D02*
D03*
X263386Y294882D02*
D03*
Y287008D02*
D03*
X218110Y284646D02*
D03*
Y292520D02*
D03*
X180709Y213386D02*
D03*
Y205512D02*
D03*
Y197638D02*
D03*
Y189764D02*
D03*
Y181890D02*
D03*
Y174016D02*
D03*
X205512Y244488D02*
D03*
X197638D02*
D03*
X189764D02*
D03*
X181890D02*
D03*
X252756Y78740D02*
D03*
X268504D02*
D03*
X260630D02*
D03*
X15748Y282677D02*
D03*
Y290551D02*
D03*
Y298425D02*
D03*
Y306299D02*
D03*
Y314173D02*
D03*
Y322047D02*
D03*
X141339Y200394D02*
D03*
X132677Y202756D02*
D03*
X124803D02*
D03*
X37795Y112992D02*
D03*
Y109055D02*
D03*
Y105118D02*
D03*
X33858D02*
D03*
Y109055D02*
D03*
Y112992D02*
D03*
Y116929D02*
D03*
Y120866D02*
D03*
X36220Y256693D02*
D03*
X28346D02*
D03*
X20472D02*
D03*
X72047Y173228D02*
D03*
X65748D02*
D03*
X71260Y42913D02*
D03*
X59842Y68898D02*
D03*
X55905D02*
D03*
X63779D02*
D03*
X67716D02*
D03*
X71653D02*
D03*
X75590D02*
D03*
X51968D02*
D03*
X48031D02*
D03*
Y87795D02*
D03*
X51968D02*
D03*
X75590D02*
D03*
X71653D02*
D03*
X67716D02*
D03*
X63779D02*
D03*
X55905D02*
D03*
X59842D02*
D03*
X30315Y50787D02*
D03*
Y46850D02*
D03*
Y42913D02*
D03*
Y38976D02*
D03*
Y35039D02*
D03*
Y31102D02*
D03*
Y27165D02*
D03*
D93*
X326142Y57323D02*
D03*
X162205Y153150D02*
D03*
Y149213D02*
D03*
X166142D02*
D03*
Y153150D02*
D03*
Y157087D02*
D03*
Y161024D02*
D03*
Y177559D02*
D03*
Y173622D02*
D03*
X260630Y97638D02*
D03*
X268504D02*
D03*
X252756D02*
D03*
X275394Y180512D02*
D03*
X208268Y90158D02*
D03*
X65746Y146852D02*
D03*
X11811Y33268D02*
D03*
X43701Y128740D02*
D03*
X46457Y125197D02*
D03*
X205906Y167323D02*
D03*
X207480Y163779D02*
D03*
X48819Y30709D02*
D03*
X236959Y216585D02*
D03*
X239301Y214173D02*
D03*
X259252Y207086D02*
D03*
X226378Y105512D02*
D03*
X221653Y111812D02*
D03*
X221654Y96457D02*
D03*
X200394Y134646D02*
D03*
X211615Y171654D02*
D03*
X48819Y26772D02*
D03*
X237795Y225197D02*
D03*
X255511Y164567D02*
D03*
X268110Y138583D02*
D03*
X61811Y155512D02*
D03*
X65354D02*
D03*
X108268Y140945D02*
D03*
Y133071D02*
D03*
X112205Y137008D02*
D03*
X68898Y155512D02*
D03*
X72441D02*
D03*
X50000Y213386D02*
D03*
X70079Y223622D02*
D03*
Y225590D02*
D03*
Y227559D02*
D03*
X50000Y211417D02*
D03*
Y209449D02*
D03*
D94*
X253543Y56889D02*
D03*
%TF.MD5,960d9a472dc320aef44d20a04b9a8245*%
M02*
