%TF.GenerationSoftware,Altium Limited,Altium Designer,25.2.1 (25)*%
G04 Layer_Color=8388736*
%FSLAX25Y25*%
%MOIN*%
%TF.SameCoordinates,F6C81A79-D505-4479-B840-BDF532C21910*%
%TF.FilePolarity,Negative*%
%TF.FileFunction,Soldermask,Top*%
%TF.Part,Single*%
G01*
G75*
%TA.AperFunction,ComponentPad*%
%ADD57C,0.08268*%
%ADD67C,0.06299*%
%TA.AperFunction,SMDPad,CuDef*%
%ADD107R,0.04331X0.02362*%
%TA.AperFunction,NonConductor*%
%ADD119C,0.00591*%
%TA.AperFunction,SMDPad,CuDef*%
%ADD123R,0.03150X0.05512*%
%ADD124R,0.06653X0.02913*%
%ADD125R,0.05512X0.03150*%
%ADD126R,0.04194X0.03494*%
%ADD127R,0.08268X0.04724*%
%ADD128R,0.04528X0.02559*%
%ADD129R,0.03494X0.04194*%
%ADD130R,0.13386X0.06693*%
%ADD131R,0.05118X0.06693*%
%ADD132R,0.04724X0.05315*%
%ADD133R,0.04764X0.03543*%
G04:AMPARAMS|DCode=134|XSize=66.93mil|YSize=53.15mil|CornerRadius=0mil|HoleSize=0mil|Usage=FLASHONLY|Rotation=225.000|XOffset=0mil|YOffset=0mil|HoleType=Round|Shape=Rectangle|*
%AMROTATEDRECTD134*
4,1,4,0.00487,0.04245,0.04245,0.00487,-0.00487,-0.04245,-0.04245,-0.00487,0.00487,0.04245,0.0*
%
%ADD134ROTATEDRECTD134*%

%ADD135R,0.05118X0.01575*%
%ADD136R,0.01575X0.05118*%
%ADD137R,0.02756X0.05118*%
%ADD138R,0.02559X0.04528*%
%ADD139R,0.07874X0.07874*%
%ADD140R,0.08661X0.06693*%
%ADD141R,0.01968X0.05709*%
%ADD142R,0.03543X0.04764*%
%ADD143R,0.03150X0.06299*%
%ADD144R,0.04331X0.03543*%
%ADD145R,0.03937X0.06299*%
%ADD146R,0.06299X0.03937*%
%TA.AperFunction,BGAPad,CuDef*%
%ADD147R,0.03937X0.03937*%
%TA.AperFunction,SMDPad,CuDef*%
%ADD148R,0.06496X0.05118*%
%ADD149R,0.09252X0.08740*%
%ADD150R,0.16142X0.04331*%
%ADD151R,0.05512X0.13780*%
%ADD152R,0.03937X0.06693*%
%TA.AperFunction,ComponentPad*%
%ADD153C,0.04331*%
%ADD154O,0.07087X0.05118*%
%ADD155C,0.05512*%
%ADD156C,0.12205*%
%ADD157C,0.06693*%
D57*
X22244Y150591D02*
D03*
Y170276D02*
D03*
D67*
X133858Y266142D02*
D03*
X94488D02*
D03*
X74803Y344882D02*
D03*
X153543D02*
D03*
X240118Y319331D02*
D03*
Y359331D02*
D03*
Y389331D02*
D03*
X270118Y319331D02*
D03*
Y379331D02*
D03*
X187756Y319331D02*
D03*
Y359331D02*
D03*
Y389331D02*
D03*
X217756Y319331D02*
D03*
Y379331D02*
D03*
D107*
X174016Y109075D02*
D03*
Y113406D02*
D03*
D119*
X388650Y95866D02*
X391798D01*
X390749Y96916D01*
X391798Y97965D01*
X388650D01*
X391798Y99015D02*
Y100064D01*
Y99540D01*
X389699D01*
Y99015D01*
X388650Y103738D02*
Y101638D01*
X390224D01*
Y102688D01*
Y101638D01*
X391798D01*
Y104787D02*
Y105837D01*
Y105312D01*
X389699D01*
Y104787D01*
X392323Y107411D02*
Y109510D01*
X389174Y112659D02*
X388650Y112134D01*
Y111084D01*
X389174Y110560D01*
X389699D01*
X390224Y111084D01*
Y112134D01*
X390749Y112659D01*
X391273D01*
X391798Y112134D01*
Y111084D01*
X391273Y110560D01*
X391798Y115282D02*
Y114233D01*
X391273Y113708D01*
X390224D01*
X389699Y114233D01*
Y115282D01*
X390224Y115807D01*
X390749D01*
Y113708D01*
X389699Y118956D02*
Y117382D01*
X390224Y116857D01*
X391273D01*
X391798Y117382D01*
Y118956D01*
X392323Y120005D02*
Y122104D01*
X388650Y123154D02*
X391798D01*
Y124728D01*
X391273Y125253D01*
X389174D01*
X388650Y124728D01*
Y123154D01*
X391798Y127877D02*
Y126827D01*
X391273Y126303D01*
X390224D01*
X389699Y126827D01*
Y127877D01*
X390224Y128402D01*
X390749D01*
Y126303D01*
X389174Y129976D02*
X389699D01*
Y129451D01*
Y130501D01*
Y129976D01*
X391273D01*
X391798Y130501D01*
X392323Y132075D02*
Y134174D01*
X389699Y135223D02*
X391798Y136273D01*
X389699Y137323D01*
X389174Y138372D02*
X388650Y138897D01*
Y139946D01*
X389174Y140471D01*
X391273D01*
X391798Y139946D01*
Y138897D01*
X391273Y138372D01*
X389174D01*
X391798Y141521D02*
Y142570D01*
Y142045D01*
X388650D01*
X389174Y141521D01*
D123*
X154724Y165748D02*
D03*
X162205D02*
D03*
X259252Y201181D02*
D03*
X266732D02*
D03*
X208661Y218110D02*
D03*
X216142D02*
D03*
X264961Y57874D02*
D03*
X272441D02*
D03*
X211614Y177559D02*
D03*
X204134D02*
D03*
X275590Y123248D02*
D03*
X268110D02*
D03*
X275590Y131890D02*
D03*
X268110D02*
D03*
X200386Y120867D02*
D03*
X192905D02*
D03*
X200394Y128831D02*
D03*
X192913D02*
D03*
X196259Y169882D02*
D03*
X188779D02*
D03*
X36417Y26575D02*
D03*
X43898D02*
D03*
X36417Y33661D02*
D03*
X43898D02*
D03*
X36417Y40748D02*
D03*
X43898D02*
D03*
X162205Y157874D02*
D03*
X154724D02*
D03*
D124*
X235039Y118248D02*
D03*
Y113248D02*
D03*
Y108248D02*
D03*
X256299D02*
D03*
Y113248D02*
D03*
Y118248D02*
D03*
Y123248D02*
D03*
X235039D02*
D03*
X185827Y113406D02*
D03*
X207087D02*
D03*
Y108405D02*
D03*
Y103405D02*
D03*
Y98405D02*
D03*
X185827D02*
D03*
Y103405D02*
D03*
Y108405D02*
D03*
X101181Y159843D02*
D03*
Y164842D02*
D03*
Y169843D02*
D03*
X79921D02*
D03*
Y164842D02*
D03*
Y159843D02*
D03*
Y154842D02*
D03*
X101181D02*
D03*
D125*
X188583Y238386D02*
D03*
Y230906D02*
D03*
X198031Y238386D02*
D03*
Y230906D02*
D03*
X249606Y164567D02*
D03*
Y157087D02*
D03*
X252854Y92913D02*
D03*
Y85433D02*
D03*
X268602Y92913D02*
D03*
Y85433D02*
D03*
X260728Y92913D02*
D03*
Y85433D02*
D03*
X65748Y160236D02*
D03*
Y167717D02*
D03*
X132677Y194882D02*
D03*
Y187402D02*
D03*
X124803Y195079D02*
D03*
Y187598D02*
D03*
X46260Y167520D02*
D03*
Y160039D02*
D03*
D126*
X271260Y194095D02*
D03*
X264960D02*
D03*
X264961Y188976D02*
D03*
X271261D02*
D03*
X233464Y212008D02*
D03*
X227164D02*
D03*
X93701Y148425D02*
D03*
X100001D02*
D03*
X342913Y87795D02*
D03*
X349213D02*
D03*
X350177Y64567D02*
D03*
X343877D02*
D03*
X268110Y108248D02*
D03*
X274410D02*
D03*
X261024Y180709D02*
D03*
X267324D02*
D03*
X189959Y162205D02*
D03*
X196259D02*
D03*
X188778Y210827D02*
D03*
X195078D02*
D03*
X188778Y178543D02*
D03*
X195078D02*
D03*
X245866Y287795D02*
D03*
X252166D02*
D03*
X204724D02*
D03*
X211024D02*
D03*
X66929Y35433D02*
D03*
X73229D02*
D03*
X41142Y17717D02*
D03*
X47442D02*
D03*
D127*
X249606Y265276D02*
D03*
Y255276D02*
D03*
Y245276D02*
D03*
Y235276D02*
D03*
Y225276D02*
D03*
D128*
Y309055D02*
D03*
X260630D02*
D03*
X162992Y142913D02*
D03*
X151969D02*
D03*
X208268Y309055D02*
D03*
X197244D02*
D03*
D129*
X215748Y111811D02*
D03*
Y105511D02*
D03*
Y90157D02*
D03*
Y96457D02*
D03*
X229528Y152755D02*
D03*
Y159055D02*
D03*
X224803Y159055D02*
D03*
Y152755D02*
D03*
X234252Y159055D02*
D03*
Y152755D02*
D03*
X238976Y159055D02*
D03*
Y152755D02*
D03*
X239961Y294095D02*
D03*
Y287795D02*
D03*
X198819Y294095D02*
D03*
Y287795D02*
D03*
X5906Y33268D02*
D03*
Y26968D02*
D03*
X49016Y42717D02*
D03*
Y36417D02*
D03*
X72047Y160630D02*
D03*
Y166930D02*
D03*
X57874Y140552D02*
D03*
Y146852D02*
D03*
D130*
X153150Y200394D02*
D03*
D131*
X162205Y175197D02*
D03*
X153150D02*
D03*
X144095D02*
D03*
D132*
X342913Y95276D02*
D03*
X352756D02*
D03*
D133*
X342736Y76181D02*
D03*
X350177Y79921D02*
D03*
Y72441D02*
D03*
X54350Y39173D02*
D03*
X61791Y42913D02*
D03*
Y35433D02*
D03*
X42736Y144292D02*
D03*
X50177Y148032D02*
D03*
Y140552D02*
D03*
D134*
X198896Y186473D02*
D03*
X209196Y196773D02*
D03*
X203072Y202898D02*
D03*
X192771Y192597D02*
D03*
D135*
X219685Y196457D02*
D03*
Y198425D02*
D03*
X253149D02*
D03*
Y176772D02*
D03*
X219685D02*
D03*
X253149Y178740D02*
D03*
X219685D02*
D03*
X253149Y180709D02*
D03*
X219685D02*
D03*
X253149Y182677D02*
D03*
X219685D02*
D03*
X253149Y184646D02*
D03*
X219685D02*
D03*
X253149Y186614D02*
D03*
X219685D02*
D03*
X253149Y188583D02*
D03*
X219685D02*
D03*
X253149Y190551D02*
D03*
X219685D02*
D03*
X253149Y192520D02*
D03*
X219685D02*
D03*
X253149Y194488D02*
D03*
X219685D02*
D03*
X253149Y196457D02*
D03*
D136*
X225590Y170866D02*
D03*
X227559D02*
D03*
X229527D02*
D03*
X231496D02*
D03*
X233464D02*
D03*
X235433D02*
D03*
X237401D02*
D03*
X239370D02*
D03*
X241338D02*
D03*
X243307D02*
D03*
X245275D02*
D03*
X247244D02*
D03*
Y204331D02*
D03*
X245275D02*
D03*
X243307D02*
D03*
X241338D02*
D03*
X239370D02*
D03*
X237401D02*
D03*
X235433D02*
D03*
X233464D02*
D03*
X231496D02*
D03*
X229527D02*
D03*
X227559D02*
D03*
X225590D02*
D03*
D137*
X257283Y41929D02*
D03*
X253543D02*
D03*
X249803D02*
D03*
Y50984D02*
D03*
X253543D02*
D03*
X257283D02*
D03*
D138*
X264961Y38976D02*
D03*
Y50000D02*
D03*
X65748Y235827D02*
D03*
Y246850D02*
D03*
D139*
X237205Y11909D02*
D03*
X267126D02*
D03*
D140*
X239961Y21949D02*
D03*
X264370D02*
D03*
D141*
X254724Y22441D02*
D03*
X257283D02*
D03*
X247047D02*
D03*
X252165D02*
D03*
X249606D02*
D03*
D142*
X249606Y302146D02*
D03*
X253346Y294705D02*
D03*
X245866D02*
D03*
X208268Y302146D02*
D03*
X212008Y294705D02*
D03*
X204528D02*
D03*
D143*
X28937Y18504D02*
D03*
X23031D02*
D03*
X11220D02*
D03*
D144*
X5709Y7480D02*
D03*
Y15748D02*
D03*
X34449Y7480D02*
D03*
Y15748D02*
D03*
D145*
X38898Y49803D02*
D03*
X43898D02*
D03*
X48898D02*
D03*
X53898D02*
D03*
X58898D02*
D03*
X63898D02*
D03*
X68898D02*
D03*
X73898D02*
D03*
X78898D02*
D03*
X83898D02*
D03*
X88898D02*
D03*
X93898D02*
D03*
X98898D02*
D03*
X103898D02*
D03*
Y118701D02*
D03*
X98898D02*
D03*
X93898D02*
D03*
X88898D02*
D03*
X83898D02*
D03*
X78898D02*
D03*
X73898D02*
D03*
X68898D02*
D03*
X63898D02*
D03*
X58898D02*
D03*
X53898D02*
D03*
X48898D02*
D03*
X43898D02*
D03*
X38898D02*
D03*
D146*
X108819Y61752D02*
D03*
Y66752D02*
D03*
Y71752D02*
D03*
Y76752D02*
D03*
Y81752D02*
D03*
Y86752D02*
D03*
Y91752D02*
D03*
Y96752D02*
D03*
Y101752D02*
D03*
Y106752D02*
D03*
D147*
X69291Y78347D02*
D03*
Y83858D02*
D03*
Y72835D02*
D03*
X74803Y78347D02*
D03*
Y83858D02*
D03*
Y72835D02*
D03*
X63779Y78347D02*
D03*
Y83858D02*
D03*
Y72835D02*
D03*
D148*
X116417Y211201D02*
D03*
Y231713D02*
D03*
X81890Y211201D02*
D03*
Y231713D02*
D03*
D149*
X66988Y137008D02*
D03*
X84193D02*
D03*
D150*
X107874Y187402D02*
D03*
X85827D02*
D03*
D151*
X101772Y137402D02*
D03*
X93504D02*
D03*
D152*
X84646Y244291D02*
D03*
X73228D02*
D03*
D153*
X353528Y115551D02*
D03*
Y129693D02*
D03*
X339386D02*
D03*
D154*
X307087Y20079D02*
D03*
Y25984D02*
D03*
Y31890D02*
D03*
Y37795D02*
D03*
Y43701D02*
D03*
Y49606D02*
D03*
X281496Y63386D02*
D03*
Y69291D02*
D03*
Y75197D02*
D03*
Y81102D02*
D03*
Y87008D02*
D03*
Y92913D02*
D03*
D155*
X152235Y108535D02*
D03*
X138316Y94615D02*
D03*
X35433Y274803D02*
D03*
X15748D02*
D03*
X35433Y329921D02*
D03*
X15748D02*
D03*
D156*
X245118Y403543D02*
D03*
X265118D02*
D03*
X192756D02*
D03*
X212756D02*
D03*
X15748Y400000D02*
D03*
Y380000D02*
D03*
D157*
X35433Y400000D02*
D03*
X153543D02*
D03*
%TF.MD5,5f59aae88737e8e33591b0151de97bf3*%
M02*
