%TF.GenerationSoftware,Altium Limited,Altium Designer,25.2.1 (25)*%
G04 Layer_Color=32768*
%FSLAX25Y25*%
%MOIN*%
%TF.SameCoordinates,F6C81A79-D505-4479-B840-BDF532C21910*%
%TF.FilePolarity,Positive*%
%TF.FileFunction,Other,Route_Tool_Path*%
%TF.Part,Single*%
G01*
G75*
%TA.AperFunction,NonConductor*%
%ADD109C,0.00787*%
%ADD111C,0.01968*%
D109*
X296220Y136624D02*
Y137412D01*
X297402Y136624D02*
Y137412D01*
X296220Y134656D02*
Y135443D01*
X297402Y134656D02*
Y135443D01*
X296220Y132687D02*
Y133475D01*
X297402Y132687D02*
Y133475D01*
X297402Y111821D02*
Y112608D01*
X296220Y111821D02*
Y112608D01*
X297402Y109853D02*
Y110640D01*
X296220Y109853D02*
Y110640D01*
X297402Y107884D02*
Y108671D01*
X296220Y107884D02*
Y108671D01*
X296220Y87018D02*
Y87805D01*
X297402Y87018D02*
Y87805D01*
Y85049D02*
Y85837D01*
X296220Y85049D02*
Y85837D01*
Y83081D02*
Y83868D01*
X297402Y83081D02*
Y83868D01*
X297402Y62215D02*
Y63002D01*
X296220Y62215D02*
Y63002D01*
X297402Y60246D02*
Y61034D01*
X296220Y60246D02*
Y61034D01*
X297402Y58278D02*
Y59065D01*
X296220Y58278D02*
Y59065D01*
X297402Y37412D02*
Y38199D01*
X296220Y37412D02*
Y38199D01*
X297402Y35443D02*
Y36230D01*
X296220Y35443D02*
Y36230D01*
X297402Y33475D02*
Y34262D01*
X296220Y33475D02*
Y34262D01*
X297401Y12608D02*
Y13396D01*
X296220Y12608D02*
Y13396D01*
X297401Y10640D02*
Y11427D01*
X296220Y10640D02*
Y11427D01*
X297401Y8671D02*
Y9459D01*
X296220Y8671D02*
Y9459D01*
D111*
X-1181Y-1575D02*
X400787D01*
X400787Y156299D02*
X400787Y-1575D01*
X296811Y156299D02*
X400787D01*
X296811D02*
Y426378D01*
X-4331D02*
X296811D01*
X-4331D02*
X-4331Y118898D01*
X24409D01*
Y49606D02*
Y118898D01*
X-1181Y49606D02*
X24409D01*
X-1181Y-1575D02*
Y49606D01*
X296811Y139380D02*
Y155522D01*
X296811Y114577D02*
Y130719D01*
X296811Y89774D02*
Y105915D01*
X296811Y64971D02*
Y81112D01*
X296811Y40167D02*
Y56309D01*
X296811Y15364D02*
Y31506D01*
X296811Y-9439D02*
Y6703D01*
%TF.MD5,34cb8e26b418c04b877c685d0a88aaa9*%
M02*
