%TF.GenerationSoftware,Altium Limited,Altium Designer,25.2.1 (25)*%
G04 Layer_Color=255*
%FSLAX25Y25*%
%MOIN*%
%TF.SameCoordinates,F6C81A79-D505-4479-B840-BDF532C21910*%
%TF.FilePolarity,Positive*%
%TF.FileFunction,Pads,Top*%
%TF.Part,Single*%
G01*
G75*
%TA.AperFunction,SMDPad,CuDef*%
%ADD10R,0.02756X0.05118*%
%TA.AperFunction,SMDPad,SMDef*%
%ADD11R,0.17323X0.12992*%
%ADD12R,0.24410X0.15354*%
%TA.AperFunction,SMDPad,CuDef*%
%ADD13R,0.06102X0.02362*%
%ADD14R,0.05118X0.02756*%
%ADD15R,0.03800X0.03100*%
%ADD16R,0.07874X0.04331*%
%ADD17R,0.04134X0.02165*%
%ADD18R,0.03100X0.03800*%
%ADD19R,0.12992X0.06299*%
%ADD20R,0.04724X0.06299*%
%ADD21R,0.04331X0.04921*%
%ADD22R,0.04370X0.03150*%
%ADD23R,0.03937X0.01968*%
%TA.AperFunction,SMDPad,SMDef*%
%ADD24R,0.12992X0.17323*%
%ADD25R,0.15354X0.24410*%
%TA.AperFunction,SMDPad,CuDef*%
G04:AMPARAMS|DCode=26|XSize=62.99mil|YSize=49.21mil|CornerRadius=0mil|HoleSize=0mil|Usage=FLASHONLY|Rotation=225.000|XOffset=0mil|YOffset=0mil|HoleType=Round|Shape=Rectangle|*
%AMROTATEDRECTD26*
4,1,4,0.00487,0.03967,0.03967,0.00487,-0.00487,-0.03967,-0.03967,-0.00487,0.00487,0.03967,0.0*
%
%ADD26ROTATEDRECTD26*%

%ADD27R,0.04724X0.01181*%
%ADD28R,0.01181X0.04724*%
%ADD29R,0.02362X0.04724*%
%ADD30R,0.02165X0.04134*%
%ADD31R,0.07480X0.07480*%
%ADD32R,0.08268X0.06299*%
%ADD33R,0.01575X0.05315*%
%ADD34R,0.03150X0.04370*%
%ADD35R,0.02756X0.05906*%
%ADD36R,0.03937X0.03150*%
%ADD37R,0.03543X0.05906*%
%ADD38R,0.05906X0.03543*%
%TA.AperFunction,BGAPad,CuDef*%
%ADD39R,0.03543X0.03543*%
%TA.AperFunction,SMDPad,CuDef*%
%ADD40R,0.06102X0.04724*%
%ADD41R,0.08858X0.08346*%
%ADD42R,0.15748X0.03937*%
%ADD43R,0.05118X0.13386*%
%ADD44R,0.03543X0.06299*%
%TA.AperFunction,ComponentPad*%
%ADD56C,0.03937*%
%ADD57C,0.08268*%
%ADD58O,0.07874X0.15748*%
%ADD59O,0.15748X0.07874*%
%ADD60O,0.07087X0.14173*%
%ADD61C,0.05906*%
%ADD62O,0.06693X0.04724*%
%ADD63C,0.05118*%
%ADD64O,0.14173X0.07087*%
%ADD65C,0.11811*%
%ADD66C,0.07874*%
%ADD67C,0.06299*%
D10*
X154724Y165748D02*
D03*
X162205D02*
D03*
X259252Y201181D02*
D03*
X266732D02*
D03*
X208661Y218110D02*
D03*
X216142D02*
D03*
X264961Y57874D02*
D03*
X272441D02*
D03*
X211614Y177559D02*
D03*
X204134D02*
D03*
X275590Y123248D02*
D03*
X268110D02*
D03*
X275590Y131890D02*
D03*
X268110D02*
D03*
X200386Y120867D02*
D03*
X192905D02*
D03*
X200394Y128831D02*
D03*
X192913D02*
D03*
X196259Y169882D02*
D03*
X188779D02*
D03*
X36417Y26575D02*
D03*
X43898D02*
D03*
X36417Y33661D02*
D03*
X43898D02*
D03*
X36417Y40748D02*
D03*
X43898D02*
D03*
X162205Y157874D02*
D03*
X154724D02*
D03*
D11*
X63583Y212992D02*
D03*
D12*
X28346Y190157D02*
D03*
Y240945D02*
D03*
D13*
X235039Y118248D02*
D03*
Y113248D02*
D03*
Y108248D02*
D03*
X256299D02*
D03*
Y113248D02*
D03*
Y118248D02*
D03*
Y123248D02*
D03*
X235039D02*
D03*
X185827Y113406D02*
D03*
X207087D02*
D03*
Y108405D02*
D03*
Y103405D02*
D03*
Y98405D02*
D03*
X185827D02*
D03*
Y103405D02*
D03*
Y108405D02*
D03*
X101181Y159843D02*
D03*
Y164842D02*
D03*
Y169843D02*
D03*
X79921D02*
D03*
Y164842D02*
D03*
Y159843D02*
D03*
Y154842D02*
D03*
X101181D02*
D03*
D14*
X188583Y238386D02*
D03*
Y230906D02*
D03*
X198031Y238386D02*
D03*
Y230906D02*
D03*
X249606Y164567D02*
D03*
Y157087D02*
D03*
X252854Y92913D02*
D03*
Y85433D02*
D03*
X268602Y92913D02*
D03*
Y85433D02*
D03*
X260728Y92913D02*
D03*
Y85433D02*
D03*
X65748Y160236D02*
D03*
Y167717D02*
D03*
X132677Y194882D02*
D03*
Y187402D02*
D03*
X124803Y195079D02*
D03*
Y187598D02*
D03*
X46260Y167520D02*
D03*
Y160039D02*
D03*
D15*
X271260Y194095D02*
D03*
X264960D02*
D03*
X264961Y188976D02*
D03*
X271261D02*
D03*
X233464Y212008D02*
D03*
X227164D02*
D03*
X93701Y148425D02*
D03*
X100001D02*
D03*
X342913Y87795D02*
D03*
X349213D02*
D03*
X350177Y64567D02*
D03*
X343877D02*
D03*
X268110Y108248D02*
D03*
X274410D02*
D03*
X261024Y180709D02*
D03*
X267324D02*
D03*
X189959Y162205D02*
D03*
X196259D02*
D03*
X188778Y210827D02*
D03*
X195078D02*
D03*
X188778Y178543D02*
D03*
X195078D02*
D03*
X245866Y287795D02*
D03*
X252166D02*
D03*
X204724D02*
D03*
X211024D02*
D03*
X66929Y35433D02*
D03*
X73229D02*
D03*
X41142Y17717D02*
D03*
X47442D02*
D03*
D16*
X249606Y265276D02*
D03*
Y255276D02*
D03*
Y245276D02*
D03*
Y235276D02*
D03*
Y225276D02*
D03*
D17*
Y309055D02*
D03*
X260630D02*
D03*
X162992Y142913D02*
D03*
X151969D02*
D03*
X208268Y309055D02*
D03*
X197244D02*
D03*
D18*
X215748Y111811D02*
D03*
Y105511D02*
D03*
Y90157D02*
D03*
Y96457D02*
D03*
X229528Y152755D02*
D03*
Y159055D02*
D03*
X224803Y159055D02*
D03*
Y152755D02*
D03*
X234252Y159055D02*
D03*
Y152755D02*
D03*
X238976Y159055D02*
D03*
Y152755D02*
D03*
X239961Y294095D02*
D03*
Y287795D02*
D03*
X198819Y294095D02*
D03*
Y287795D02*
D03*
X5906Y33268D02*
D03*
Y26968D02*
D03*
X49016Y42717D02*
D03*
Y36417D02*
D03*
X72047Y160630D02*
D03*
Y166930D02*
D03*
X57874Y140552D02*
D03*
Y146852D02*
D03*
D19*
X153150Y200394D02*
D03*
D20*
X162205Y175197D02*
D03*
X153150D02*
D03*
X144095D02*
D03*
D21*
X342913Y95276D02*
D03*
X352756D02*
D03*
D22*
X342736Y76181D02*
D03*
X350177Y79921D02*
D03*
Y72441D02*
D03*
X54350Y39173D02*
D03*
X61791Y42913D02*
D03*
Y35433D02*
D03*
X42736Y144292D02*
D03*
X50177Y148032D02*
D03*
Y140552D02*
D03*
D23*
X174016Y109075D02*
D03*
Y113406D02*
D03*
D24*
X188386Y68799D02*
D03*
D25*
X211221Y33563D02*
D03*
X160433D02*
D03*
D26*
X198896Y186473D02*
D03*
X209196Y196773D02*
D03*
X203072Y202898D02*
D03*
X192771Y192597D02*
D03*
D27*
X219685Y196457D02*
D03*
Y198425D02*
D03*
X253149D02*
D03*
Y176772D02*
D03*
X219685D02*
D03*
X253149Y178740D02*
D03*
X219685D02*
D03*
X253149Y180709D02*
D03*
X219685D02*
D03*
X253149Y182677D02*
D03*
X219685D02*
D03*
X253149Y184646D02*
D03*
X219685D02*
D03*
X253149Y186614D02*
D03*
X219685D02*
D03*
X253149Y188583D02*
D03*
X219685D02*
D03*
X253149Y190551D02*
D03*
X219685D02*
D03*
X253149Y192520D02*
D03*
X219685D02*
D03*
X253149Y194488D02*
D03*
X219685D02*
D03*
X253149Y196457D02*
D03*
D28*
X225590Y170866D02*
D03*
X227559D02*
D03*
X229527D02*
D03*
X231496D02*
D03*
X233464D02*
D03*
X235433D02*
D03*
X237401D02*
D03*
X239370D02*
D03*
X241338D02*
D03*
X243307D02*
D03*
X245275D02*
D03*
X247244D02*
D03*
Y204331D02*
D03*
X245275D02*
D03*
X243307D02*
D03*
X241338D02*
D03*
X239370D02*
D03*
X237401D02*
D03*
X235433D02*
D03*
X233464D02*
D03*
X231496D02*
D03*
X229527D02*
D03*
X227559D02*
D03*
X225590D02*
D03*
D29*
X257283Y41929D02*
D03*
X253543D02*
D03*
X249803D02*
D03*
Y50984D02*
D03*
X253543D02*
D03*
X257283D02*
D03*
D30*
X264961Y38976D02*
D03*
Y50000D02*
D03*
X65748Y235827D02*
D03*
Y246850D02*
D03*
D31*
X237205Y11909D02*
D03*
X267126D02*
D03*
D32*
X239961Y21949D02*
D03*
X264370D02*
D03*
D33*
X254724Y22441D02*
D03*
X257283D02*
D03*
X247047D02*
D03*
X252165D02*
D03*
X249606D02*
D03*
D34*
X249606Y302146D02*
D03*
X253346Y294705D02*
D03*
X245866D02*
D03*
X208268Y302146D02*
D03*
X212008Y294705D02*
D03*
X204528D02*
D03*
D35*
X28937Y18504D02*
D03*
X23031D02*
D03*
X11220D02*
D03*
D36*
X5709Y7480D02*
D03*
Y15748D02*
D03*
X34449Y7480D02*
D03*
Y15748D02*
D03*
D37*
X38898Y49803D02*
D03*
X43898D02*
D03*
X48898D02*
D03*
X53898D02*
D03*
X58898D02*
D03*
X63898D02*
D03*
X68898D02*
D03*
X73898D02*
D03*
X78898D02*
D03*
X83898D02*
D03*
X88898D02*
D03*
X93898D02*
D03*
X98898D02*
D03*
X103898D02*
D03*
Y118701D02*
D03*
X98898D02*
D03*
X93898D02*
D03*
X88898D02*
D03*
X83898D02*
D03*
X78898D02*
D03*
X73898D02*
D03*
X68898D02*
D03*
X63898D02*
D03*
X58898D02*
D03*
X53898D02*
D03*
X48898D02*
D03*
X43898D02*
D03*
X38898D02*
D03*
D38*
X108819Y61752D02*
D03*
Y66752D02*
D03*
Y71752D02*
D03*
Y76752D02*
D03*
Y81752D02*
D03*
Y86752D02*
D03*
Y91752D02*
D03*
Y96752D02*
D03*
Y101752D02*
D03*
Y106752D02*
D03*
D39*
X69291Y78347D02*
D03*
Y83858D02*
D03*
Y72835D02*
D03*
X74803Y78347D02*
D03*
Y83858D02*
D03*
Y72835D02*
D03*
X63779Y78347D02*
D03*
Y83858D02*
D03*
Y72835D02*
D03*
D40*
X116417Y211201D02*
D03*
Y231713D02*
D03*
X81890Y211201D02*
D03*
Y231713D02*
D03*
D41*
X66988Y137008D02*
D03*
X84193D02*
D03*
D42*
X107874Y187402D02*
D03*
X85827D02*
D03*
D43*
X101772Y137402D02*
D03*
X93504D02*
D03*
D44*
X84646Y244291D02*
D03*
X73228D02*
D03*
D56*
X353528Y115551D02*
D03*
Y129693D02*
D03*
X339386D02*
D03*
D57*
X13386Y215551D02*
D03*
X185827Y18602D02*
D03*
D58*
X31102Y215551D02*
D03*
X204724Y48917D02*
D03*
D59*
X43701Y196653D02*
D03*
X185827Y36319D02*
D03*
D60*
X55905Y219882D02*
D03*
D61*
X133858Y266142D02*
D03*
X94488D02*
D03*
X74803Y344882D02*
D03*
X153543D02*
D03*
X240118Y319331D02*
D03*
Y359331D02*
D03*
Y389331D02*
D03*
X270118Y319331D02*
D03*
Y379331D02*
D03*
X187756Y319331D02*
D03*
Y359331D02*
D03*
Y389331D02*
D03*
X217756Y319331D02*
D03*
Y379331D02*
D03*
D62*
X307087Y20079D02*
D03*
Y25984D02*
D03*
Y31890D02*
D03*
Y37795D02*
D03*
Y43701D02*
D03*
Y49606D02*
D03*
X281496Y63386D02*
D03*
Y69291D02*
D03*
Y75197D02*
D03*
Y81102D02*
D03*
Y87008D02*
D03*
Y92913D02*
D03*
D63*
X152235Y108535D02*
D03*
X138316Y94615D02*
D03*
X35433Y274803D02*
D03*
X15748D02*
D03*
X35433Y329921D02*
D03*
X15748D02*
D03*
D64*
X181496Y61122D02*
D03*
D65*
X245118Y403543D02*
D03*
X265118D02*
D03*
X192756D02*
D03*
X212756D02*
D03*
X15748Y400000D02*
D03*
Y380000D02*
D03*
D66*
X22244Y150591D02*
D03*
Y170276D02*
D03*
D67*
X35433Y400000D02*
D03*
X153543D02*
D03*
%TF.MD5,9ffa8d133b9ec50f2e0921979d8fc78b*%
M02*
