%TF.GenerationSoftware,Altium Limited,Altium Designer,25.2.1 (25)*%
G04 Layer_Physical_Order=4*
G04 Layer_Color=16711680*
%FSLAX25Y25*%
%MOIN*%
%TF.SameCoordinates,F6C81A79-D505-4479-B840-BDF532C21910*%
%TF.FilePolarity,Positive*%
%TF.FileFunction,Copper,L4,Bot,Signal*%
%TF.Part,Single*%
G01*
G75*
%TA.AperFunction,SMDPad,CuDef*%
%ADD10R,0.02756X0.05118*%
%ADD14R,0.05118X0.02756*%
%ADD15R,0.03800X0.03100*%
%ADD18R,0.03100X0.03800*%
%ADD21R,0.04331X0.04921*%
%ADD44R,0.03543X0.06299*%
%TA.AperFunction,Conductor*%
%ADD45C,0.01500*%
%ADD46C,0.02500*%
%ADD47C,0.01100*%
%ADD48C,0.01470*%
%ADD51C,0.02000*%
%ADD54C,0.07000*%
%TA.AperFunction,ComponentPad*%
%ADD56C,0.03937*%
%ADD57C,0.08268*%
%ADD58O,0.07874X0.15748*%
%ADD59O,0.15748X0.07874*%
%ADD60O,0.07087X0.14173*%
%ADD61C,0.05906*%
%ADD62O,0.06693X0.04724*%
%ADD63C,0.05118*%
%ADD64O,0.14173X0.07087*%
%ADD65C,0.11811*%
%ADD66C,0.07874*%
%ADD67C,0.06299*%
%TA.AperFunction,ViaPad*%
%ADD68C,0.01968*%
%ADD69C,0.02362*%
%TA.AperFunction,SMDPad,CuDef*%
%ADD105R,0.06299X0.03543*%
%ADD106R,0.04646X0.02284*%
%ADD107R,0.04331X0.02362*%
%TA.AperFunction,Conductor*%
%ADD108C,0.05000*%
G36*
X294052Y298463D02*
Y186905D01*
X293552Y186855D01*
X293478Y187230D01*
X293161Y187704D01*
X293160Y187704D01*
X287060Y193805D01*
X286585Y194122D01*
X286026Y194233D01*
X286026Y194233D01*
X283452D01*
X283238Y194448D01*
X282618Y194704D01*
X281948D01*
X281329Y194448D01*
X280856Y193974D01*
X280599Y193355D01*
Y192685D01*
X280856Y192066D01*
X281059Y191862D01*
X281290Y191535D01*
X281059Y191209D01*
X280856Y191005D01*
X280599Y190386D01*
Y189716D01*
X280856Y189097D01*
X281329Y188623D01*
X281948Y188367D01*
X282618D01*
X283238Y188623D01*
X283452Y188838D01*
X284397D01*
X288193Y185041D01*
Y182377D01*
Y159391D01*
Y155670D01*
X288187Y155173D01*
X288175Y155168D01*
X288170Y155157D01*
X287673Y155150D01*
X287668D01*
X287579Y155132D01*
X286997Y155056D01*
X286372Y154797D01*
X285835Y154385D01*
X285423Y153848D01*
X285164Y153223D01*
X285076Y152552D01*
X285164Y151881D01*
X285423Y151256D01*
X285835Y150719D01*
X286372Y150307D01*
X286997Y150048D01*
X287579Y149972D01*
X287668Y149954D01*
X287673D01*
X287696Y149954D01*
X288171Y149932D01*
X288193Y149457D01*
X288193Y149434D01*
Y149213D01*
Y107086D01*
X288189Y107082D01*
X244827D01*
X244268Y106971D01*
X243793Y106654D01*
X243793Y106654D01*
X241485Y104346D01*
X241168Y103872D01*
X241057Y103312D01*
X241057Y103312D01*
Y79689D01*
X236560Y75192D01*
X225578D01*
X225363Y75407D01*
X224745Y75663D01*
X224074D01*
X223455Y75407D01*
X222982Y74933D01*
X222725Y74314D01*
Y73644D01*
X222982Y73025D01*
X223185Y72821D01*
X223416Y72495D01*
X223185Y72168D01*
X222982Y71965D01*
X222725Y71346D01*
Y70675D01*
X222982Y70056D01*
X223455Y69583D01*
X224074Y69326D01*
X224745D01*
X225363Y69583D01*
X225578Y69797D01*
X238189D01*
X238189Y69797D01*
X238749Y69908D01*
X239224Y70225D01*
X246024Y77026D01*
X246024Y77026D01*
X246341Y77500D01*
X246452Y78060D01*
Y101683D01*
X246456Y101687D01*
X289818D01*
X289818Y101687D01*
X290378Y101798D01*
X290853Y102115D01*
X293160Y104423D01*
X293161Y104423D01*
X293478Y104897D01*
X293589Y105457D01*
Y153309D01*
X294089Y153358D01*
X294145Y153075D01*
X294410Y152678D01*
X294807Y152413D01*
X295276Y152320D01*
X295460Y152135D01*
X295276Y17323D01*
Y16535D01*
X283071Y4331D01*
X15748D01*
X5512Y14567D01*
Y48767D01*
X25157D01*
X25584Y48852D01*
X25946Y49093D01*
X26188Y49455D01*
X26202Y49529D01*
X26573Y49526D01*
X26664Y120979D01*
X5512Y120979D01*
Y240945D01*
X14961Y250394D01*
X170472D01*
X179134Y259055D01*
Y298819D01*
X185827Y305512D01*
X287013D01*
X294052Y298463D01*
D02*
G37*
G36*
X393701Y143307D02*
Y29528D01*
Y9843D01*
X387008Y3150D01*
X305118D01*
X300000Y8268D01*
Y69597D01*
X300462Y69789D01*
X300676Y69574D01*
X300908Y69419D01*
X300911Y69419D01*
X301226Y69184D01*
X301293Y68916D01*
Y63935D01*
X301810D01*
Y61417D01*
X301942Y60754D01*
X302318Y60192D01*
X305353Y57156D01*
Y55438D01*
X303543D01*
X303270Y55384D01*
X303039Y55229D01*
X301464Y53654D01*
X301309Y53423D01*
X301255Y53150D01*
Y48031D01*
X301309Y47758D01*
X301464Y47527D01*
X302574Y46417D01*
X302645Y46213D01*
Y45780D01*
X302490Y45549D01*
X302436Y45276D01*
Y41732D01*
X302490Y41459D01*
X302645Y41228D01*
X303432Y40440D01*
X303590Y40335D01*
X303602Y40322D01*
X303700Y40064D01*
X303749Y39759D01*
X303428Y39340D01*
X303119Y38595D01*
X303014Y37795D01*
X303119Y36996D01*
X303428Y36251D01*
X303918Y35611D01*
X304144Y35438D01*
X304058Y34915D01*
X304032Y34894D01*
X303826Y34757D01*
X303039Y33969D01*
X302884Y33738D01*
X302830Y33465D01*
Y30315D01*
X302884Y30042D01*
X303039Y29810D01*
X303826Y29023D01*
X304032Y28885D01*
X304058Y28865D01*
X304144Y28341D01*
X303918Y28168D01*
X303428Y27529D01*
X303119Y26784D01*
X303014Y25984D01*
X303119Y25185D01*
X303428Y24440D01*
X303918Y23800D01*
X304558Y23309D01*
X304626Y23281D01*
Y22782D01*
X304558Y22754D01*
X303918Y22263D01*
X303428Y21623D01*
X303119Y20878D01*
X303014Y20079D01*
X303119Y19279D01*
X303428Y18534D01*
X303918Y17895D01*
X304558Y17404D01*
X305303Y17095D01*
X306102Y16990D01*
X308071D01*
X308870Y17095D01*
X309615Y17404D01*
X310255Y17895D01*
X310746Y18534D01*
X311054Y19279D01*
X311159Y20079D01*
X311054Y20878D01*
X310746Y21623D01*
X310255Y22263D01*
X309615Y22754D01*
X309548Y22782D01*
Y23281D01*
X309615Y23309D01*
X310255Y23800D01*
X310746Y24440D01*
X311054Y25185D01*
X311159Y25984D01*
X311054Y26784D01*
X310746Y27529D01*
X310255Y28168D01*
X310065Y28314D01*
X310235Y28814D01*
X310236D01*
X310286Y28824D01*
X310337Y28821D01*
X310422Y28851D01*
X310509Y28868D01*
X310552Y28896D01*
X310600Y28913D01*
X310666Y28973D01*
X310741Y29023D01*
X310769Y29065D01*
X310807Y29099D01*
X311791Y30411D01*
X315639D01*
Y29812D01*
X322157D01*
Y30411D01*
X324522D01*
Y29290D01*
X329022D01*
Y30411D01*
X331215D01*
Y29290D01*
X335715D01*
X335900Y28867D01*
Y28613D01*
X335715Y28190D01*
X335401Y28190D01*
X331215D01*
Y27068D01*
X329022D01*
Y28190D01*
X324522D01*
Y22990D01*
X329022D01*
Y24111D01*
X331215D01*
Y22990D01*
X331986D01*
Y20120D01*
X331215D01*
Y18998D01*
X328062D01*
Y20779D01*
X323906D01*
Y14261D01*
X328062D01*
Y16041D01*
X331215D01*
Y14920D01*
X335705D01*
X335715Y14920D01*
X336205Y14896D01*
Y14099D01*
X331890D01*
X331617Y14045D01*
X331385Y13891D01*
X331314Y13820D01*
X331215D01*
Y13720D01*
X330991Y13497D01*
X330837Y13265D01*
X330782Y12992D01*
Y9449D01*
X330837Y9176D01*
X330991Y8944D01*
X331215Y8721D01*
Y8620D01*
X331316D01*
X331385Y8550D01*
X331617Y8396D01*
X331890Y8341D01*
X340945D01*
X341218Y8396D01*
X341449Y8550D01*
X342237Y9338D01*
X342392Y9569D01*
X342446Y9843D01*
Y10136D01*
X344791D01*
X345356Y10248D01*
X345836Y10569D01*
X346241Y10974D01*
X346741Y10767D01*
Y9733D01*
X352472D01*
Y9881D01*
X355230D01*
Y9014D01*
X359730D01*
Y9881D01*
X363189D01*
X363852Y10013D01*
X364415Y10389D01*
X365793Y11767D01*
X366168Y12329D01*
X366300Y12992D01*
Y28346D01*
X366168Y29010D01*
X365793Y29572D01*
X363233Y32131D01*
X362671Y32507D01*
X362008Y32639D01*
X353259D01*
Y34755D01*
X352521D01*
Y48425D01*
X352389Y49088D01*
X352013Y49651D01*
X350832Y50832D01*
X350270Y51208D01*
X349606Y51340D01*
X339690D01*
Y53150D01*
X339636Y53423D01*
X339481Y53654D01*
X337906Y55229D01*
X337675Y55384D01*
X337402Y55438D01*
X337166D01*
Y73668D01*
X337628Y73859D01*
X337729Y73758D01*
X338209Y73437D01*
X338775Y73325D01*
X340606D01*
X340877Y72889D01*
X339899Y71911D01*
X339579Y71431D01*
X339466Y70866D01*
Y65045D01*
X338345D01*
Y60545D01*
X343545D01*
Y61036D01*
X343982Y61214D01*
X344344Y60888D01*
Y60245D01*
X345045D01*
X345165Y60125D01*
X345396Y59970D01*
X345669Y59916D01*
X348819D01*
X349092Y59970D01*
X349324Y60125D01*
X349444Y60245D01*
X350145D01*
Y60963D01*
X350266Y61144D01*
X350320Y61417D01*
Y65732D01*
X350410D01*
Y66141D01*
X354615D01*
X354731Y66025D01*
X355217Y65824D01*
Y67874D01*
X356716D01*
Y65824D01*
X357202Y66025D01*
X357226Y66049D01*
X357686Y66194D01*
Y66194D01*
X357686Y66194D01*
X359736D01*
Y66929D01*
X359055D01*
X358268Y67716D01*
Y70472D01*
X359055Y71260D01*
X359736D01*
Y71994D01*
X357686D01*
Y70862D01*
X357663Y70827D01*
X357186D01*
X356523Y70695D01*
X355961Y70319D01*
X355696Y70055D01*
X355533D01*
X354731Y69723D01*
X354615Y69607D01*
X350410D01*
Y70016D01*
X349891D01*
X349717Y70190D01*
X349486Y70344D01*
X349213Y70399D01*
X344882D01*
X344609Y70344D01*
X344377Y70190D01*
X344203Y70016D01*
X343764D01*
Y68374D01*
X344488D01*
Y69291D01*
X344882Y69685D01*
X349213D01*
X349606Y69291D01*
Y61417D01*
X348819Y60630D01*
X345669D01*
X344488Y61811D01*
Y67374D01*
X343764D01*
Y65732D01*
X343764Y65732D01*
X343764D01*
X343672Y65270D01*
X343545Y65045D01*
X343274Y65045D01*
X342423D01*
Y70253D01*
X343564Y71394D01*
X344064Y71392D01*
Y71032D01*
X350110D01*
Y74716D01*
X344064D01*
Y74716D01*
X343564Y74665D01*
X342380Y75849D01*
X342310Y75896D01*
X342461Y76396D01*
X344064D01*
Y76032D01*
X350109D01*
Y76032D01*
X350609Y76083D01*
X352344Y74348D01*
X352824Y74028D01*
X353390Y73915D01*
X357574D01*
X357608Y73743D01*
X357763Y73511D01*
X357986Y73288D01*
Y72794D01*
X358480D01*
X358550Y72724D01*
X358782Y72569D01*
X359055Y72515D01*
X366929D01*
X367202Y72569D01*
X367434Y72724D01*
X367505Y72795D01*
X367998D01*
Y73288D01*
X368221Y73511D01*
X368376Y73743D01*
X368430Y74016D01*
Y76772D01*
X368377Y77038D01*
X368413Y77090D01*
X368427Y77107D01*
X368787Y77448D01*
X369018Y77293D01*
X369291Y77239D01*
X372835D01*
X373108Y77293D01*
X373339Y77448D01*
X373341Y77450D01*
X373535D01*
Y77643D01*
X373733Y77842D01*
X373888Y78073D01*
X373942Y78346D01*
Y84252D01*
X373888Y84525D01*
X373733Y84757D01*
X373535Y84955D01*
X373535Y85149D01*
X373878Y85507D01*
X375984D01*
X376257Y85561D01*
X376489Y85716D01*
X376883Y86110D01*
X377037Y86341D01*
X377092Y86614D01*
Y90158D01*
X377037Y90431D01*
X376883Y90662D01*
X376489Y91056D01*
X376257Y91211D01*
X375984Y91265D01*
X370079D01*
X369806Y91211D01*
X369574Y91056D01*
X369232Y91081D01*
X368824Y91339D01*
Y94095D01*
X368770Y94368D01*
X368615Y94599D01*
X367998Y95216D01*
Y95316D01*
X367898D01*
X367828Y95387D01*
X367596Y95541D01*
X367323Y95596D01*
X362269D01*
X362088Y96040D01*
X362398Y96416D01*
X362486D01*
Y96516D01*
X362709Y96739D01*
X362864Y96971D01*
X362918Y97244D01*
Y100394D01*
X362864Y100667D01*
X362709Y100898D01*
X362486Y101121D01*
Y101617D01*
X361991D01*
X361922Y101686D01*
X361690Y101840D01*
X361417Y101895D01*
X352362D01*
X352089Y101840D01*
X351857Y101686D01*
X351788Y101617D01*
X351687D01*
Y101515D01*
X350098Y99926D01*
X344882D01*
X344609Y99872D01*
X344377Y99717D01*
X344376Y99716D01*
X344064D01*
Y99404D01*
X343984Y99324D01*
X343829Y99092D01*
X343775Y98819D01*
Y96850D01*
X343829Y96577D01*
X343984Y96346D01*
X344064Y96265D01*
Y96032D01*
X344297D01*
X344377Y95952D01*
Y95387D01*
X343590Y94599D01*
X343435Y94368D01*
X343381Y94095D01*
Y92520D01*
X343435Y92247D01*
X343590Y92015D01*
X344064Y91541D01*
Y91032D01*
X344813D01*
X344882Y91019D01*
X350886D01*
X351320Y90584D01*
X351113Y90084D01*
X345045D01*
X344772Y90030D01*
X344541Y89875D01*
X344382Y89716D01*
X344064D01*
Y89398D01*
X343984Y89318D01*
X343984Y89318D01*
X343829Y89086D01*
X343775Y88813D01*
Y87008D01*
X343829Y86735D01*
X343984Y86503D01*
X344064Y86423D01*
Y86032D01*
X344493D01*
X344609Y85955D01*
X344882Y85900D01*
X356397D01*
X357763Y84535D01*
X357995Y84380D01*
X358268Y84326D01*
X366771D01*
X366847Y84260D01*
X367021Y83826D01*
X366978Y83785D01*
X358661Y83785D01*
X358388Y83730D01*
X358157Y83575D01*
X358086Y83505D01*
X357986D01*
Y83405D01*
X357741Y83160D01*
X357736Y83153D01*
X357166Y83048D01*
X357120Y83062D01*
X356262Y83919D01*
X355783Y84240D01*
X355217Y84352D01*
X350110D01*
Y84716D01*
X344064D01*
Y81032D01*
X350110D01*
Y81396D01*
X354605D01*
X356141Y79859D01*
X356620Y79539D01*
X357186Y79426D01*
X357532D01*
Y79156D01*
X357587Y78883D01*
X357741Y78651D01*
X357924Y78468D01*
X357986Y77994D01*
X357986Y77994D01*
Y77500D01*
X357763Y77276D01*
X357608Y77045D01*
X357574Y76872D01*
X354002D01*
X351955Y78919D01*
X351475Y79240D01*
X350909Y79352D01*
X350110D01*
Y79716D01*
X344064D01*
Y79352D01*
X342515D01*
X342502Y79365D01*
Y116577D01*
X352998Y127073D01*
X353176Y127025D01*
X353879D01*
X354558Y127207D01*
X355166Y127558D01*
X355663Y128055D01*
X356014Y128663D01*
X356196Y129342D01*
Y130045D01*
X356014Y130723D01*
X355663Y131332D01*
X355166Y131829D01*
X355078Y131880D01*
X355211Y132380D01*
X356868D01*
X357577Y131671D01*
Y121691D01*
X354058Y118172D01*
X353879Y118220D01*
X353176D01*
X352498Y118038D01*
X351889Y117686D01*
X351392Y117190D01*
X351041Y116581D01*
X350859Y115902D01*
Y115200D01*
X351041Y114521D01*
X351392Y113913D01*
X351889Y113416D01*
X352498Y113065D01*
X353176Y112883D01*
X353879D01*
X354558Y113065D01*
X355166Y113416D01*
X355663Y113913D01*
X356014Y114521D01*
X356196Y115200D01*
Y115902D01*
X356148Y116081D01*
X360101Y120033D01*
X360421Y120513D01*
X360533Y121079D01*
Y132283D01*
X360421Y132849D01*
X360101Y133329D01*
X358526Y134904D01*
X358046Y135224D01*
X357480Y135337D01*
X351181D01*
X350615Y135224D01*
X350136Y134904D01*
X341614Y126382D01*
X341119Y126594D01*
Y127266D01*
X341208Y127318D01*
X341761Y127871D01*
X342152Y128548D01*
X342325Y129193D01*
X339386D01*
Y129693D01*
X338886D01*
Y132633D01*
X338240Y132459D01*
X337563Y132069D01*
X337010Y131516D01*
X336959Y131427D01*
X318670D01*
X318006Y131295D01*
X317444Y130919D01*
X312948Y126423D01*
X312572Y125860D01*
X312440Y125197D01*
Y100735D01*
X311623D01*
Y99568D01*
X308465D01*
X307802Y99436D01*
X307239Y99061D01*
X305074Y96895D01*
X304698Y96333D01*
X304566Y95669D01*
Y87195D01*
X304698Y86532D01*
X305074Y85970D01*
X306245Y84798D01*
X306807Y84422D01*
X307471Y84290D01*
X309523D01*
Y79134D01*
X309577Y78861D01*
X309698Y78679D01*
Y78355D01*
X310005D01*
X310125Y78236D01*
X310357Y78081D01*
X310630Y78026D01*
X314173D01*
X314446Y78081D01*
X314678Y78236D01*
X314798Y78355D01*
X315498D01*
Y78716D01*
X315895Y78991D01*
X316298Y78714D01*
Y78655D01*
X316398D01*
X316424Y78629D01*
X316656Y78474D01*
X316929Y78420D01*
X320964D01*
X322942Y76442D01*
X322768Y75996D01*
X322319Y75934D01*
X321371Y76883D01*
X321139Y77037D01*
X320866Y77092D01*
X317323D01*
X317050Y77037D01*
X316818Y76883D01*
X316128Y76192D01*
X316032D01*
Y76097D01*
X315637Y75701D01*
X315482Y75470D01*
X315428Y75197D01*
Y70472D01*
X315482Y70199D01*
X315637Y69968D01*
X316031Y69574D01*
X316262Y69419D01*
X316535Y69365D01*
X323119D01*
Y66032D01*
X324663D01*
Y58505D01*
X324547Y58388D01*
X324261Y57697D01*
Y56949D01*
X324547Y56257D01*
X324866Y55938D01*
X324659Y55438D01*
X308820D01*
Y57874D01*
X308688Y58537D01*
X308312Y59100D01*
X305277Y62135D01*
Y63935D01*
X305793D01*
Y68865D01*
X305793Y69135D01*
X306198Y69365D01*
X311417D01*
X311690Y69419D01*
X311922Y69574D01*
X312709Y70362D01*
X312864Y70593D01*
X312918Y70866D01*
Y75197D01*
X312864Y75470D01*
X312709Y75701D01*
X311922Y76489D01*
X311690Y76644D01*
X311417Y76698D01*
X301181D01*
X300908Y76644D01*
X300676Y76489D01*
X300462Y76274D01*
X300000Y76466D01*
Y145276D01*
X306299Y151575D01*
X385433D01*
X393701Y143307D01*
D02*
G37*
G36*
X335433Y114961D02*
Y101575D01*
X335039Y101181D01*
X331890D01*
X331496Y101575D01*
Y114961D01*
X332677Y116142D01*
X334252D01*
X335433Y114961D01*
D02*
G37*
G36*
X362205Y100394D02*
Y97244D01*
X361417Y96457D01*
X344882D01*
X344488Y96850D01*
Y98819D01*
X344882Y99213D01*
X350394D01*
X352362Y101181D01*
X361417D01*
X362205Y100394D01*
D02*
G37*
G36*
X329134Y114961D02*
Y96850D01*
X327559Y95276D01*
X317717D01*
X316929Y96063D01*
Y100000D01*
X317717Y100787D01*
X321654D01*
X323228Y102362D01*
Y114961D01*
X324410Y116142D01*
X327953D01*
X329134Y114961D01*
D02*
G37*
G36*
X368110Y94095D02*
Y91339D01*
X367323Y90551D01*
X352362D01*
X351181Y91732D01*
X344882D01*
X344094Y92520D01*
Y94095D01*
X344882Y94882D01*
X367323D01*
X368110Y94095D01*
D02*
G37*
G36*
X329528Y93701D02*
Y92126D01*
X328740Y91339D01*
X322441D01*
Y90945D01*
X320866Y89370D01*
X312205D01*
X311811Y89764D01*
Y93307D01*
X312992Y94488D01*
X328740D01*
X329528Y93701D01*
D02*
G37*
G36*
X376378Y90158D02*
Y86614D01*
X375984Y86221D01*
X368504D01*
X367323Y85039D01*
X358268D01*
X356693Y86614D01*
X344882D01*
X344488Y87008D01*
Y88813D01*
X345045Y89370D01*
X368898D01*
X370079Y90551D01*
X375984D01*
X376378Y90158D01*
D02*
G37*
G36*
X329134Y88976D02*
Y87008D01*
X328346Y86221D01*
X323622D01*
X321260Y83858D01*
X316929D01*
X316535Y84252D01*
Y87795D01*
X316929Y88189D01*
X322441D01*
X324016Y89764D01*
X328346D01*
X329134Y88976D01*
D02*
G37*
G36*
X314961Y87402D02*
Y79528D01*
X314173Y78740D01*
X310630D01*
X310236Y79134D01*
Y87402D01*
X310630Y87795D01*
X314567D01*
X314961Y87402D01*
D02*
G37*
G36*
X373228Y84252D02*
Y78347D01*
X372835Y77953D01*
X369291D01*
X368504Y78740D01*
X358661Y78740D01*
X358246Y79156D01*
X358246Y82655D01*
X358661Y83071D01*
X367717Y83071D01*
X369291Y84646D01*
X372835D01*
X373228Y84252D01*
D02*
G37*
G36*
X322441Y81890D02*
Y81102D01*
X324016Y79527D01*
X327953Y79528D01*
X328740Y78740D01*
Y76772D01*
X328346Y76378D01*
X324016D01*
X321260Y79134D01*
X316929D01*
X316535Y79528D01*
Y82284D01*
X317323Y83071D01*
X321260D01*
X322441Y81890D01*
D02*
G37*
G36*
X366929Y77559D02*
X367717Y76772D01*
Y74016D01*
X366929Y73228D01*
X359055D01*
X358268Y74016D01*
Y76772D01*
X359055Y77559D01*
X366929Y77559D01*
D02*
G37*
G36*
X322047Y75197D02*
X327953D01*
X329134Y74016D01*
Y70866D01*
X328346Y70079D01*
X316535D01*
X316142Y70472D01*
Y75197D01*
X317323Y76378D01*
X320866D01*
X322047Y75197D01*
D02*
G37*
G36*
X312205D02*
Y70866D01*
X311417Y70079D01*
X301181D01*
X300394Y70866D01*
Y75197D01*
X301181Y75984D01*
X311417D01*
X312205Y75197D01*
D02*
G37*
G36*
X338976Y53150D02*
X338976Y48031D01*
X337795Y46850D01*
X303150D01*
X301969Y48031D01*
Y53150D01*
X303543Y54724D01*
X337402D01*
X338976Y53150D01*
D02*
G37*
G36*
X338583Y45276D02*
Y37795D01*
X337402Y36614D01*
X318111Y36614D01*
X316930Y37795D01*
X316929Y39764D01*
X315748Y40945D01*
X303937D01*
X303150Y41732D01*
Y45276D01*
X303937Y46063D01*
X337795D01*
X338583Y45276D01*
D02*
G37*
G36*
X309842Y34252D02*
X311417Y32677D01*
Y31102D01*
X310236Y29528D01*
X304331D01*
X303543Y30315D01*
Y33465D01*
X304331Y34252D01*
X309842Y34252D01*
D02*
G37*
G36*
X362834Y27628D02*
Y13710D01*
X362471Y13348D01*
X359730D01*
Y14214D01*
X355230D01*
Y13348D01*
X352472D01*
Y13495D01*
X350722D01*
X350530Y13957D01*
X350652Y14079D01*
X350972Y14558D01*
X351085Y15124D01*
Y17213D01*
X352472D01*
Y20976D01*
X347148D01*
Y21663D01*
X348570D01*
Y22734D01*
X354309D01*
X355729Y21314D01*
X355522Y20814D01*
X354930D01*
Y18414D01*
X357480D01*
X360030D01*
Y20814D01*
X358959D01*
Y21654D01*
X358846Y22219D01*
X358526Y22699D01*
X355967Y25258D01*
X355487Y25578D01*
X354921Y25691D01*
X348570D01*
Y26661D01*
X348570Y26763D01*
X348949Y27056D01*
X353259D01*
Y29172D01*
X361290D01*
X362834Y27628D01*
D02*
G37*
G36*
X341339Y34646D02*
X342126Y33858D01*
Y18110D01*
X341339Y17323D01*
X337402D01*
X336614Y18110D01*
Y33858D01*
X337402Y34646D01*
X341339Y34646D01*
D02*
G37*
G36*
X341732Y12598D02*
Y9843D01*
X340945Y9055D01*
X331890D01*
X331496Y9449D01*
Y12992D01*
X331890Y13386D01*
X340945D01*
X341732Y12598D01*
D02*
G37*
%LPC*%
G36*
X218860Y302444D02*
Y301144D01*
X220160D01*
X219959Y301629D01*
X219346Y302243D01*
X218860Y302444D01*
D02*
G37*
G36*
X217360D02*
X216875Y302243D01*
X216261Y301629D01*
X216060Y301144D01*
X217360D01*
Y302444D01*
D02*
G37*
G36*
X220160Y299644D02*
X218860D01*
Y298344D01*
X219346Y298545D01*
X219959Y299158D01*
X220160Y299644D01*
D02*
G37*
G36*
X217360D02*
X216060D01*
X216261Y299158D01*
X216875Y298545D01*
X217360Y298344D01*
Y299644D01*
D02*
G37*
G36*
X264136Y296932D02*
Y295632D01*
X265436D01*
X265235Y296117D01*
X264621Y296731D01*
X264136Y296932D01*
D02*
G37*
G36*
X262636D02*
X262150Y296731D01*
X261537Y296117D01*
X261336Y295632D01*
X262636D01*
Y296932D01*
D02*
G37*
G36*
X218860Y294570D02*
Y293270D01*
X220160D01*
X219959Y293755D01*
X219346Y294369D01*
X218860Y294570D01*
D02*
G37*
G36*
X217360D02*
X216875Y294369D01*
X216261Y293755D01*
X216060Y293270D01*
X217360D01*
Y294570D01*
D02*
G37*
G36*
X265436Y294132D02*
X264136D01*
Y292832D01*
X264621Y293033D01*
X265235Y293646D01*
X265436Y294132D01*
D02*
G37*
G36*
X262636D02*
X261336D01*
X261537Y293646D01*
X262150Y293033D01*
X262636Y292832D01*
Y294132D01*
D02*
G37*
G36*
X220160Y291770D02*
X218860D01*
Y290470D01*
X219346Y290671D01*
X219959Y291284D01*
X220160Y291770D01*
D02*
G37*
G36*
X217360D02*
X216060D01*
X216261Y291284D01*
X216875Y290671D01*
X217360Y290470D01*
Y291770D01*
D02*
G37*
G36*
X264136Y289058D02*
Y287758D01*
X265436D01*
X265235Y288243D01*
X264621Y288857D01*
X264136Y289058D01*
D02*
G37*
G36*
X262636D02*
X262150Y288857D01*
X261537Y288243D01*
X261336Y287758D01*
X262636D01*
Y289058D01*
D02*
G37*
G36*
X218860Y286696D02*
Y285396D01*
X220160D01*
X219959Y285881D01*
X219346Y286495D01*
X218860Y286696D01*
D02*
G37*
G36*
X217360D02*
X216875Y286495D01*
X216261Y285881D01*
X216060Y285396D01*
X217360D01*
Y286696D01*
D02*
G37*
G36*
X265436Y286258D02*
X264136D01*
Y284958D01*
X264621Y285159D01*
X265235Y285772D01*
X265436Y286258D01*
D02*
G37*
G36*
X262636D02*
X261336D01*
X261537Y285772D01*
X262150Y285159D01*
X262636Y284958D01*
Y286258D01*
D02*
G37*
G36*
X220160Y283896D02*
X218860D01*
Y282595D01*
X219346Y282797D01*
X219959Y283410D01*
X220160Y283896D01*
D02*
G37*
G36*
X217360D02*
X216060D01*
X216261Y283410D01*
X216875Y282797D01*
X217360Y282595D01*
Y283896D01*
D02*
G37*
G36*
X248388Y276460D02*
Y275160D01*
X249688D01*
X249487Y275645D01*
X248873Y276258D01*
X248388Y276460D01*
D02*
G37*
G36*
X246888D02*
X246402Y276258D01*
X245789Y275645D01*
X245588Y275160D01*
X246888D01*
Y276460D01*
D02*
G37*
G36*
X249688Y273659D02*
X248388D01*
Y272359D01*
X248873Y272560D01*
X249487Y273174D01*
X249688Y273659D01*
D02*
G37*
G36*
X246888D02*
X245588D01*
X245789Y273174D01*
X246402Y272560D01*
X246888Y272359D01*
Y273659D01*
D02*
G37*
G36*
X207562Y243738D02*
X206262D01*
Y242438D01*
X206747Y242639D01*
X207361Y243253D01*
X207562Y243738D01*
D02*
G37*
G36*
X204762D02*
X203462D01*
X203663Y243253D01*
X204276Y242639D01*
X204762Y242438D01*
Y243738D01*
D02*
G37*
G36*
X199688D02*
X198388D01*
Y242438D01*
X198873Y242639D01*
X199487Y243253D01*
X199688Y243738D01*
D02*
G37*
G36*
X196888D02*
X195588D01*
X195789Y243253D01*
X196402Y242639D01*
X196888Y242438D01*
Y243738D01*
D02*
G37*
G36*
X191814D02*
X190514D01*
Y242438D01*
X190999Y242639D01*
X191613Y243253D01*
X191814Y243738D01*
D02*
G37*
G36*
X189014D02*
X187714D01*
X187915Y243253D01*
X188528Y242639D01*
X189014Y242438D01*
Y243738D01*
D02*
G37*
G36*
X183940D02*
X182640D01*
Y242438D01*
X183125Y242639D01*
X183739Y243253D01*
X183940Y243738D01*
D02*
G37*
G36*
X181140D02*
X179840D01*
X180041Y243253D01*
X180654Y242639D01*
X181140Y242438D01*
Y243738D01*
D02*
G37*
G36*
X179469Y232787D02*
X178799D01*
X178180Y232530D01*
X177706Y232056D01*
X177450Y231437D01*
Y230767D01*
X177706Y230148D01*
X178180Y229675D01*
X178799Y229418D01*
X179469D01*
X180088Y229675D01*
X180562Y230148D01*
X180818Y230767D01*
Y231437D01*
X180562Y232056D01*
X180088Y232530D01*
X179469Y232787D01*
D02*
G37*
G36*
X40514Y230003D02*
Y228703D01*
X41814D01*
X41613Y229188D01*
X40999Y229802D01*
X40514Y230003D01*
D02*
G37*
G36*
X39014D02*
X38528Y229802D01*
X37915Y229188D01*
X37714Y228703D01*
X39014D01*
Y230003D01*
D02*
G37*
G36*
X41814Y227203D02*
X40514D01*
Y225903D01*
X40999Y226104D01*
X41613Y226717D01*
X41814Y227203D01*
D02*
G37*
G36*
X39014D02*
X37714D01*
X37915Y226717D01*
X38528Y226104D01*
X39014Y225903D01*
Y227203D01*
D02*
G37*
G36*
X238170Y227078D02*
X237421D01*
X236730Y226792D01*
X236201Y226262D01*
X235914Y225571D01*
Y224823D01*
X236201Y224131D01*
X236730Y223602D01*
X237421Y223316D01*
X238170D01*
X238861Y223602D01*
X239390Y224131D01*
X239676Y224823D01*
Y225571D01*
X239390Y226262D01*
X238861Y226792D01*
X238170Y227078D01*
D02*
G37*
G36*
X70453Y229440D02*
X69705D01*
X69013Y229154D01*
X68484Y228625D01*
X68198Y227933D01*
Y227185D01*
X68450Y226575D01*
X68198Y225965D01*
Y225216D01*
X68450Y224606D01*
X68198Y223996D01*
Y223248D01*
X68484Y222556D01*
X69013Y222027D01*
X69705Y221741D01*
X70453D01*
X71144Y222027D01*
X71674Y222556D01*
X71960Y223248D01*
Y223996D01*
X71707Y224606D01*
X71960Y225216D01*
Y225965D01*
X71707Y226575D01*
X71960Y227185D01*
Y227933D01*
X71674Y228625D01*
X71144Y229154D01*
X70453Y229440D01*
D02*
G37*
G36*
X40514Y222129D02*
Y220829D01*
X41814D01*
X41613Y221314D01*
X40999Y221928D01*
X40514Y222129D01*
D02*
G37*
G36*
X39014D02*
X38528Y221928D01*
X37915Y221314D01*
X37714Y220829D01*
X39014D01*
Y222129D01*
D02*
G37*
G36*
X41814Y219329D02*
X40514D01*
Y218029D01*
X40999Y218230D01*
X41613Y218843D01*
X41814Y219329D01*
D02*
G37*
G36*
X39014D02*
X37714D01*
X37915Y218843D01*
X38528Y218230D01*
X39014Y218029D01*
Y219329D01*
D02*
G37*
G36*
X222404Y218586D02*
Y217285D01*
X223704D01*
X223503Y217771D01*
X222889Y218385D01*
X222404Y218586D01*
D02*
G37*
G36*
X220903D02*
X220418Y218385D01*
X219805Y217771D01*
X219603Y217285D01*
X220903D01*
Y218586D01*
D02*
G37*
G36*
X31852Y224369D02*
Y216301D01*
X36082D01*
Y219488D01*
X35912Y220777D01*
X35415Y221978D01*
X34624Y223009D01*
X33592Y223801D01*
X32391Y224298D01*
X31852Y224369D01*
D02*
G37*
G36*
X30352D02*
X29814Y224298D01*
X28613Y223801D01*
X27581Y223009D01*
X26790Y221978D01*
X26292Y220777D01*
X26123Y219488D01*
Y216301D01*
X30352D01*
Y224369D01*
D02*
G37*
G36*
X55905Y227705D02*
X54798Y227559D01*
X53765Y227132D01*
X52879Y226451D01*
X52199Y225565D01*
X51771Y224533D01*
X51626Y223425D01*
Y216339D01*
X51771Y215231D01*
X51947Y214806D01*
X51524Y214523D01*
X51066Y214981D01*
X50374Y215267D01*
X49626D01*
X48934Y214981D01*
X48405Y214451D01*
X48119Y213760D01*
Y213012D01*
X48372Y212402D01*
X48119Y211791D01*
Y211043D01*
X48372Y210433D01*
X48119Y209823D01*
Y209075D01*
X48405Y208383D01*
X48934Y207854D01*
X49626Y207568D01*
X50374D01*
X51066Y207854D01*
X51595Y208383D01*
X51881Y209075D01*
Y209823D01*
X51628Y210433D01*
X51881Y211043D01*
Y211791D01*
X51628Y212402D01*
X51881Y213012D01*
Y213760D01*
X51853Y213828D01*
X52289Y214081D01*
X52879Y213312D01*
X53765Y212632D01*
X54798Y212205D01*
X55905Y212059D01*
X57013Y212205D01*
X58046Y212632D01*
X58932Y213312D01*
X59612Y214199D01*
X60040Y215231D01*
X60185Y216339D01*
Y223425D01*
X60040Y224533D01*
X59612Y225565D01*
X58932Y226451D01*
X58046Y227132D01*
X57013Y227559D01*
X55905Y227705D01*
D02*
G37*
G36*
X223704Y215785D02*
X222404D01*
Y214485D01*
X222889Y214686D01*
X223503Y215300D01*
X223704Y215785D01*
D02*
G37*
G36*
X220903D02*
X219603D01*
X219805Y215300D01*
X220418Y214686D01*
X220903Y214485D01*
Y215785D01*
D02*
G37*
G36*
X181459Y215436D02*
Y214136D01*
X182759D01*
X182558Y214621D01*
X181944Y215235D01*
X181459Y215436D01*
D02*
G37*
G36*
X179959D02*
X179473Y215235D01*
X178860Y214621D01*
X178658Y214136D01*
X179959D01*
Y215436D01*
D02*
G37*
G36*
X40514Y214255D02*
Y212955D01*
X41814D01*
X41613Y213440D01*
X40999Y214054D01*
X40514Y214255D01*
D02*
G37*
G36*
X39014D02*
X38528Y214054D01*
X37915Y213440D01*
X37714Y212955D01*
X39014D01*
Y214255D01*
D02*
G37*
G36*
X182759Y212636D02*
X181459D01*
Y211336D01*
X181944Y211537D01*
X182558Y212150D01*
X182759Y212636D01*
D02*
G37*
G36*
X179959D02*
X178658D01*
X178860Y212150D01*
X179473Y211537D01*
X179959Y211336D01*
Y212636D01*
D02*
G37*
G36*
X14049Y220585D02*
X12723D01*
X11443Y220242D01*
X10295Y219579D01*
X9358Y218642D01*
X8695Y217494D01*
X8352Y216214D01*
Y214889D01*
X8695Y213608D01*
X9358Y212460D01*
X10295Y211523D01*
X11443Y210860D01*
X12723Y210517D01*
X14049D01*
X15329Y210860D01*
X16477Y211523D01*
X17414Y212460D01*
X18077Y213608D01*
X18420Y214889D01*
Y216214D01*
X18077Y217494D01*
X17414Y218642D01*
X16477Y219579D01*
X15329Y220242D01*
X14049Y220585D01*
D02*
G37*
G36*
X41814Y211455D02*
X40514D01*
Y210155D01*
X40999Y210356D01*
X41613Y210969D01*
X41814Y211455D01*
D02*
G37*
G36*
X39014D02*
X37714D01*
X37915Y210969D01*
X38528Y210356D01*
X39014Y210155D01*
Y211455D01*
D02*
G37*
G36*
X267285Y210712D02*
Y209411D01*
X268586D01*
X268385Y209897D01*
X267771Y210510D01*
X267285Y210712D01*
D02*
G37*
G36*
X265785D02*
X265300Y210510D01*
X264686Y209897D01*
X264485Y209411D01*
X265785D01*
Y210712D01*
D02*
G37*
G36*
X36082Y214801D02*
X31852D01*
Y206733D01*
X32391Y206804D01*
X33592Y207302D01*
X34624Y208093D01*
X35415Y209124D01*
X35912Y210325D01*
X36082Y211614D01*
Y214801D01*
D02*
G37*
G36*
X30352D02*
X26123D01*
Y211614D01*
X26292Y210325D01*
X26790Y209124D01*
X27581Y208093D01*
X28613Y207302D01*
X29814Y206804D01*
X30352Y206733D01*
Y214801D01*
D02*
G37*
G36*
X268586Y207911D02*
X267285D01*
Y206611D01*
X267771Y206812D01*
X268385Y207426D01*
X268586Y207911D01*
D02*
G37*
G36*
X265785D02*
X264485D01*
X264686Y207426D01*
X265300Y206812D01*
X265785Y206611D01*
Y207911D01*
D02*
G37*
G36*
X181459Y207562D02*
Y206262D01*
X182759D01*
X182558Y206747D01*
X181944Y207361D01*
X181459Y207562D01*
D02*
G37*
G36*
X179959D02*
X179473Y207361D01*
X178860Y206747D01*
X178658Y206262D01*
X179959D01*
Y207562D01*
D02*
G37*
G36*
X259626Y208967D02*
X258877D01*
X258186Y208681D01*
X257657Y208152D01*
X257370Y207460D01*
Y206712D01*
X257657Y206021D01*
X258186Y205491D01*
X258877Y205205D01*
X259626D01*
X260317Y205491D01*
X260846Y206021D01*
X261133Y206712D01*
Y207460D01*
X260846Y208152D01*
X260317Y208681D01*
X259626Y208967D01*
D02*
G37*
G36*
X133427Y204806D02*
Y203506D01*
X134727D01*
X134526Y203991D01*
X133913Y204605D01*
X133427Y204806D01*
D02*
G37*
G36*
X131927D02*
X131442Y204605D01*
X130828Y203991D01*
X130627Y203506D01*
X131927D01*
Y204806D01*
D02*
G37*
G36*
X125553D02*
Y203506D01*
X126853D01*
X126652Y203991D01*
X126039Y204605D01*
X125553Y204806D01*
D02*
G37*
G36*
X124053D02*
X123568Y204605D01*
X122954Y203991D01*
X122753Y203506D01*
X124053D01*
Y204806D01*
D02*
G37*
G36*
X182759Y204762D02*
X181459D01*
Y203462D01*
X181944Y203663D01*
X182558Y204276D01*
X182759Y204762D01*
D02*
G37*
G36*
X179959D02*
X178658D01*
X178860Y204276D01*
X179473Y203663D01*
X179959Y203462D01*
Y204762D01*
D02*
G37*
G36*
X142089Y202444D02*
Y201144D01*
X143389D01*
X143188Y201629D01*
X142574Y202243D01*
X142089Y202444D01*
D02*
G37*
G36*
X140589D02*
X140103Y202243D01*
X139489Y201629D01*
X139288Y201144D01*
X140589D01*
Y202444D01*
D02*
G37*
G36*
X134727Y202006D02*
X133427D01*
Y200706D01*
X133913Y200907D01*
X134526Y201520D01*
X134727Y202006D01*
D02*
G37*
G36*
X131927D02*
X130627D01*
X130828Y201520D01*
X131442Y200907D01*
X131927Y200706D01*
Y202006D01*
D02*
G37*
G36*
X126853D02*
X125553D01*
Y200706D01*
X126039Y200907D01*
X126652Y201520D01*
X126853Y202006D01*
D02*
G37*
G36*
X124053D02*
X122753D01*
X122954Y201520D01*
X123568Y200907D01*
X124053Y200706D01*
Y202006D01*
D02*
G37*
G36*
X228309Y199912D02*
Y198611D01*
X229609D01*
X229408Y199097D01*
X228795Y199711D01*
X228309Y199912D01*
D02*
G37*
G36*
X226809D02*
X226324Y199711D01*
X225710Y199097D01*
X225509Y198611D01*
X226809D01*
Y199912D01*
D02*
G37*
G36*
X181459Y199688D02*
Y198388D01*
X182759D01*
X182558Y198873D01*
X181944Y199487D01*
X181459Y199688D01*
D02*
G37*
G36*
X179959D02*
X179473Y199487D01*
X178860Y198873D01*
X178658Y198388D01*
X179959D01*
Y199688D01*
D02*
G37*
G36*
X143389Y199644D02*
X142089D01*
Y198344D01*
X142574Y198545D01*
X143188Y199158D01*
X143389Y199644D01*
D02*
G37*
G36*
X140589D02*
X139288D01*
X139489Y199158D01*
X140103Y198545D01*
X140589Y198344D01*
Y199644D01*
D02*
G37*
G36*
X47638Y201633D02*
X44451D01*
Y197404D01*
X52519D01*
X52448Y197942D01*
X51950Y199143D01*
X51159Y200175D01*
X50128Y200966D01*
X48927Y201464D01*
X47638Y201633D01*
D02*
G37*
G36*
X42951D02*
X39764D01*
X38475Y201464D01*
X37274Y200966D01*
X36243Y200175D01*
X35451Y199143D01*
X34954Y197942D01*
X34883Y197404D01*
X42951D01*
Y201633D01*
D02*
G37*
G36*
X229609Y197111D02*
X228309D01*
Y195811D01*
X228795Y196012D01*
X229408Y196626D01*
X229609Y197111D01*
D02*
G37*
G36*
X226809D02*
X225509D01*
X225710Y196626D01*
X226324Y196012D01*
X226809Y195811D01*
Y197111D01*
D02*
G37*
G36*
X182759Y196888D02*
X181459D01*
Y195588D01*
X181944Y195789D01*
X182558Y196402D01*
X182759Y196888D01*
D02*
G37*
G36*
X179959D02*
X178658D01*
X178860Y196402D01*
X179473Y195789D01*
X179959Y195588D01*
Y196888D01*
D02*
G37*
G36*
X52519Y195904D02*
X44451D01*
Y191674D01*
X47638D01*
X48927Y191844D01*
X50128Y192341D01*
X51159Y193132D01*
X51950Y194164D01*
X52448Y195365D01*
X52519Y195904D01*
D02*
G37*
G36*
X42951D02*
X34883D01*
X34954Y195365D01*
X35451Y194164D01*
X36243Y193132D01*
X37274Y192341D01*
X38475Y191844D01*
X39764Y191674D01*
X42951D01*
Y195904D01*
D02*
G37*
G36*
X181459Y191814D02*
Y190514D01*
X182759D01*
X182558Y190999D01*
X181944Y191613D01*
X181459Y191814D01*
D02*
G37*
G36*
X179959D02*
X179473Y191613D01*
X178860Y190999D01*
X178658Y190514D01*
X179959D01*
Y191814D01*
D02*
G37*
G36*
X182759Y189014D02*
X181459D01*
Y187714D01*
X181944Y187915D01*
X182558Y188528D01*
X182759Y189014D01*
D02*
G37*
G36*
X179959D02*
X178658D01*
X178860Y188528D01*
X179473Y187915D01*
X179959Y187714D01*
Y189014D01*
D02*
G37*
G36*
X181459Y183940D02*
Y182640D01*
X182759D01*
X182558Y183125D01*
X181944Y183739D01*
X181459Y183940D01*
D02*
G37*
G36*
X179959D02*
X179473Y183739D01*
X178860Y183125D01*
X178658Y182640D01*
X179959D01*
Y183940D01*
D02*
G37*
G36*
X182759Y181140D02*
X181459D01*
Y179840D01*
X181944Y180041D01*
X182558Y180654D01*
X182759Y181140D01*
D02*
G37*
G36*
X179959D02*
X178658D01*
X178860Y180654D01*
X179473Y180041D01*
X179959Y179840D01*
Y181140D01*
D02*
G37*
G36*
X254043Y249116D02*
X141339D01*
X140773Y249004D01*
X140293Y248683D01*
X117065Y225455D01*
X116744Y224975D01*
X116632Y224410D01*
Y196282D01*
X68681Y148330D01*
X66928D01*
X66812Y148447D01*
X66121Y148733D01*
X65372D01*
X64681Y148447D01*
X64152Y147917D01*
X63865Y147226D01*
Y146478D01*
X64152Y145786D01*
X64681Y145257D01*
X65105Y145082D01*
X65006Y144582D01*
X64307D01*
X60654Y148235D01*
Y153414D01*
X61154Y153748D01*
X61437Y153631D01*
X62185D01*
X62877Y153917D01*
X63273Y154314D01*
X63583Y154398D01*
X63892Y154314D01*
X64289Y153917D01*
X64980Y153631D01*
X65728D01*
X66420Y153917D01*
X66817Y154314D01*
X67126Y154398D01*
X67435Y154314D01*
X67832Y153917D01*
X68524Y153631D01*
X69272D01*
X69963Y153917D01*
X70360Y154314D01*
X70669Y154398D01*
X70979Y154314D01*
X71375Y153917D01*
X72067Y153631D01*
X72815D01*
X73506Y153917D01*
X74036Y154446D01*
X74322Y155138D01*
Y155886D01*
X74036Y156577D01*
X73506Y157106D01*
X72815Y157393D01*
X72067D01*
X71375Y157106D01*
X70979Y156710D01*
X70669Y156626D01*
X70360Y156710D01*
X69963Y157106D01*
X69272Y157393D01*
X68524D01*
X67832Y157106D01*
X67435Y156710D01*
X67126Y156626D01*
X66817Y156710D01*
X66420Y157106D01*
X65728Y157393D01*
X64980D01*
X64289Y157106D01*
X63892Y156710D01*
X63583Y156626D01*
X63273Y156710D01*
X62877Y157106D01*
X62185Y157393D01*
X61437D01*
X61141Y157271D01*
X60571Y157575D01*
X60557Y157643D01*
X60281Y158057D01*
X57200Y161137D01*
X56787Y161414D01*
X56299Y161511D01*
X47638D01*
X47150Y161414D01*
X46737Y161137D01*
X42800Y157200D01*
X42523Y156787D01*
X42426Y156299D01*
Y130126D01*
X42106Y129806D01*
X41820Y129114D01*
Y128366D01*
X42106Y127675D01*
X42635Y127145D01*
X43327Y126859D01*
X44075D01*
X44502Y127036D01*
X44999Y126774D01*
X45044Y126445D01*
X44862Y126262D01*
X44576Y125571D01*
Y124823D01*
X44862Y124131D01*
X45391Y123602D01*
X46082Y123316D01*
X46831D01*
X47522Y123602D01*
X48051Y124131D01*
X48338Y124823D01*
Y125571D01*
X48051Y126262D01*
X47731Y126583D01*
Y155378D01*
X49347Y156993D01*
X54590D01*
X56355Y155228D01*
Y146307D01*
X56452Y145819D01*
X56729Y145406D01*
X62091Y140044D01*
X62504Y139767D01*
X62992Y139670D01*
X70472D01*
X70960Y139767D01*
X71374Y140044D01*
X93835Y162505D01*
X164310D01*
X164512Y162005D01*
X164261Y161398D01*
Y160650D01*
X164547Y159958D01*
X165076Y159429D01*
X165325Y159326D01*
Y158784D01*
X165076Y158681D01*
X164547Y158152D01*
X164261Y157461D01*
Y156712D01*
X164547Y156021D01*
X165076Y155492D01*
X165325Y155389D01*
Y154848D01*
X165076Y154744D01*
X164547Y154215D01*
X164444Y153966D01*
X163903D01*
X163799Y154215D01*
X163270Y154744D01*
X162579Y155031D01*
X161830D01*
X161139Y154744D01*
X160610Y154215D01*
X160324Y153524D01*
Y152775D01*
X160610Y152084D01*
X161139Y151555D01*
X161388Y151452D01*
Y150910D01*
X161139Y150807D01*
X160610Y150278D01*
X160324Y149587D01*
Y148838D01*
X160610Y148147D01*
X161139Y147618D01*
X161830Y147332D01*
X162579D01*
X163270Y147618D01*
X163799Y148147D01*
X163903Y148396D01*
X164444D01*
X164547Y148147D01*
X165076Y147618D01*
X165768Y147332D01*
X166516D01*
X167207Y147618D01*
X167736Y148147D01*
X168023Y148838D01*
Y149587D01*
X167736Y150278D01*
X167207Y150807D01*
X166958Y150910D01*
Y151452D01*
X167207Y151555D01*
X167736Y152084D01*
X168023Y152775D01*
Y153524D01*
X167736Y154215D01*
X167207Y154744D01*
X166958Y154848D01*
Y155389D01*
X167207Y155492D01*
X167736Y156021D01*
X168023Y156712D01*
Y157461D01*
X167736Y158152D01*
X167207Y158681D01*
X166958Y158784D01*
Y159326D01*
X167207Y159429D01*
X167736Y159958D01*
X168023Y160650D01*
Y161398D01*
X167771Y162005D01*
X167974Y162505D01*
X206095D01*
X206415Y162185D01*
X207106Y161898D01*
X207855D01*
X208546Y162185D01*
X209075Y162714D01*
X209361Y163405D01*
Y164154D01*
X209075Y164845D01*
X208546Y165374D01*
X207855Y165661D01*
X207611D01*
X207404Y166161D01*
X207500Y166257D01*
X207787Y166949D01*
Y167697D01*
X207500Y168388D01*
X206971Y168918D01*
X206280Y169204D01*
X205531D01*
X204840Y168918D01*
X204520Y168597D01*
X203491D01*
X203284Y169097D01*
X203424Y169237D01*
X203625Y169722D01*
X199525D01*
X199726Y169237D01*
X199865Y169097D01*
X199658Y168597D01*
X93836D01*
X93629Y169097D01*
X119156Y194624D01*
X119476Y195104D01*
X119589Y195669D01*
Y223797D01*
X141951Y246159D01*
X179823D01*
X180014Y245659D01*
X179840Y245238D01*
X183940D01*
X183765Y245659D01*
X183956Y246159D01*
X187697D01*
X187888Y245659D01*
X187714Y245238D01*
X191814D01*
X191639Y245659D01*
X191830Y246159D01*
X195571D01*
X195762Y245659D01*
X195588Y245238D01*
X199688D01*
X199513Y245659D01*
X199704Y246159D01*
X203445D01*
X203636Y245659D01*
X203462Y245238D01*
X207562D01*
X207387Y245659D01*
X207578Y246159D01*
X253431D01*
X273916Y225674D01*
Y181694D01*
X273799Y181577D01*
X273513Y180886D01*
Y180138D01*
X273799Y179446D01*
X274329Y178917D01*
X275020Y178631D01*
X275768D01*
X276460Y178917D01*
X276989Y179446D01*
X277275Y180138D01*
Y180886D01*
X276989Y181577D01*
X276872Y181694D01*
Y226287D01*
X276760Y226852D01*
X276439Y227332D01*
X255088Y248683D01*
X254609Y249004D01*
X254043Y249116D01*
D02*
G37*
G36*
X246025Y179609D02*
Y178309D01*
X247325D01*
X247124Y178794D01*
X246511Y179408D01*
X246025Y179609D01*
D02*
G37*
G36*
X244525D02*
X244040Y179408D01*
X243426Y178794D01*
X243225Y178309D01*
X244525D01*
Y179609D01*
D02*
G37*
G36*
X231437Y191054D02*
X230767D01*
X230148Y190798D01*
X229675Y190324D01*
X229418Y189705D01*
Y189488D01*
X213144Y173215D01*
X212753Y173176D01*
X212680Y173249D01*
X211989Y173535D01*
X211240D01*
X210549Y173249D01*
X210020Y172720D01*
X209734Y172028D01*
Y171280D01*
X210020Y170588D01*
X210549Y170059D01*
X211240Y169773D01*
X211989D01*
X212271Y169890D01*
X212771Y169556D01*
Y109456D01*
X187661Y84345D01*
X168036D01*
X167883Y84499D01*
X167264Y84755D01*
X166594D01*
X165975Y84499D01*
X165501Y84025D01*
X165245Y83406D01*
Y82736D01*
X165501Y82117D01*
X165975Y81643D01*
X166594Y81387D01*
X167264D01*
X167883Y81643D01*
X168036Y81796D01*
X188189D01*
X188677Y81893D01*
X189090Y82170D01*
X214405Y107485D01*
X214867Y107293D01*
Y85039D01*
X214964Y84552D01*
X215241Y84138D01*
X217209Y82170D01*
X217622Y81893D01*
X218110Y81796D01*
X224877D01*
X225030Y81643D01*
X225649Y81387D01*
X226319D01*
X226749Y81565D01*
X227033Y81141D01*
X225906Y80015D01*
X157013D01*
X156860Y80168D01*
X156240Y80424D01*
X155570D01*
X154952Y80168D01*
X154478Y79694D01*
X154221Y79075D01*
Y78405D01*
X154478Y77786D01*
X154952Y77312D01*
X155570Y77056D01*
X156240D01*
X156860Y77312D01*
X157013Y77466D01*
X226434D01*
X226922Y77563D01*
X227336Y77839D01*
X233578Y84082D01*
X233855Y84495D01*
X233952Y84983D01*
Y103685D01*
X245783Y115517D01*
X246059Y115930D01*
X246156Y116418D01*
Y136688D01*
X246310Y136841D01*
X246566Y137460D01*
Y138130D01*
X246310Y138749D01*
X245836Y139223D01*
X245217Y139479D01*
X244547D01*
X243928Y139223D01*
X243454Y138749D01*
X243198Y138130D01*
Y137460D01*
X243454Y136841D01*
X243607Y136688D01*
Y116946D01*
X231776Y105114D01*
X231500Y104701D01*
X231403Y104213D01*
Y85511D01*
X227914Y82022D01*
X227490Y82306D01*
X227668Y82736D01*
Y83406D01*
X227412Y84025D01*
X226938Y84499D01*
X226319Y84755D01*
X225649D01*
X225030Y84499D01*
X224877Y84345D01*
X218638D01*
X217416Y85567D01*
Y169157D01*
X225725Y177466D01*
X230389D01*
X230542Y177312D01*
X231161Y177056D01*
X231831D01*
X232450Y177312D01*
X232924Y177786D01*
X233180Y178405D01*
Y179075D01*
X232924Y179694D01*
X232450Y180168D01*
X231831Y180424D01*
X231161D01*
X230542Y180168D01*
X230389Y180015D01*
X225197D01*
X224709Y179918D01*
X224296Y179641D01*
X215782Y171128D01*
X215320Y171319D01*
Y171785D01*
X231221Y187686D01*
X231437D01*
X232056Y187942D01*
X232530Y188416D01*
X232787Y189035D01*
Y189705D01*
X232530Y190324D01*
X232056Y190798D01*
X231437Y191054D01*
D02*
G37*
G36*
X247325Y176809D02*
X246025D01*
Y175508D01*
X246511Y175710D01*
X247124Y176323D01*
X247325Y176809D01*
D02*
G37*
G36*
X244525D02*
X243225D01*
X243426Y176323D01*
X244040Y175710D01*
X244525Y175508D01*
Y176809D01*
D02*
G37*
G36*
X181459Y176066D02*
Y174766D01*
X182759D01*
X182558Y175251D01*
X181944Y175865D01*
X181459Y176066D01*
D02*
G37*
G36*
X179959D02*
X179473Y175865D01*
X178860Y175251D01*
X178658Y174766D01*
X179959D01*
Y176066D01*
D02*
G37*
G36*
X72797Y175278D02*
Y173978D01*
X74097D01*
X73896Y174464D01*
X73283Y175077D01*
X72797Y175278D01*
D02*
G37*
G36*
X71297D02*
X70812Y175077D01*
X70198Y174464D01*
X69997Y173978D01*
X71297D01*
Y175278D01*
D02*
G37*
G36*
X66498D02*
Y173978D01*
X67798D01*
X67597Y174464D01*
X66983Y175077D01*
X66498Y175278D01*
D02*
G37*
G36*
X64998D02*
X64512Y175077D01*
X63899Y174464D01*
X63698Y173978D01*
X64998D01*
Y175278D01*
D02*
G37*
G36*
X182759Y173266D02*
X181459D01*
Y171966D01*
X181944Y172167D01*
X182558Y172780D01*
X182759Y173266D01*
D02*
G37*
G36*
X179959D02*
X178658D01*
X178860Y172780D01*
X179473Y172167D01*
X179959Y171966D01*
Y173266D01*
D02*
G37*
G36*
X166516Y179440D02*
X165768D01*
X165076Y179154D01*
X164547Y178625D01*
X164261Y177933D01*
Y177185D01*
X164547Y176494D01*
X165076Y175964D01*
X165325Y175861D01*
Y175320D01*
X165076Y175217D01*
X164547Y174688D01*
X164261Y173996D01*
Y173248D01*
X164547Y172556D01*
X165076Y172027D01*
X165768Y171741D01*
X166516D01*
X167207Y172027D01*
X167736Y172556D01*
X168023Y173248D01*
Y173996D01*
X167736Y174688D01*
X167207Y175217D01*
X166958Y175320D01*
Y175861D01*
X167207Y175964D01*
X167736Y176494D01*
X168023Y177185D01*
Y177933D01*
X167736Y178625D01*
X167207Y179154D01*
X166516Y179440D01*
D02*
G37*
G36*
X202325Y172523D02*
Y171222D01*
X203625D01*
X203424Y171708D01*
X202810Y172321D01*
X202325Y172523D01*
D02*
G37*
G36*
X200825D02*
X200339Y172321D01*
X199726Y171708D01*
X199525Y171222D01*
X200825D01*
Y172523D01*
D02*
G37*
G36*
X74097Y172478D02*
X72797D01*
Y171178D01*
X73283Y171379D01*
X73896Y171993D01*
X74097Y172478D01*
D02*
G37*
G36*
X71297D02*
X69997D01*
X70198Y171993D01*
X70812Y171379D01*
X71297Y171178D01*
Y172478D01*
D02*
G37*
G36*
X67798D02*
X66498D01*
Y171178D01*
X66983Y171379D01*
X67597Y171993D01*
X67798Y172478D01*
D02*
G37*
G36*
X64998D02*
X63698D01*
X63899Y171993D01*
X64512Y171379D01*
X64998Y171178D01*
Y172478D01*
D02*
G37*
G36*
X22855Y174913D02*
X21634D01*
X20454Y174597D01*
X19397Y173986D01*
X18534Y173123D01*
X17923Y172065D01*
X17607Y170886D01*
Y169665D01*
X17923Y168486D01*
X18534Y167428D01*
X19397Y166565D01*
X20454Y165955D01*
X21634Y165639D01*
X22855D01*
X24034Y165955D01*
X25091Y166565D01*
X25955Y167428D01*
X26565Y168486D01*
X26881Y169665D01*
Y170886D01*
X26565Y172065D01*
X25955Y173123D01*
X25091Y173986D01*
X24034Y174597D01*
X22855Y174913D01*
D02*
G37*
G36*
X255886Y166448D02*
X255137D01*
X254446Y166162D01*
X253917Y165633D01*
X253630Y164942D01*
Y164193D01*
X253917Y163502D01*
X254446Y162973D01*
X255137Y162686D01*
X255886D01*
X256577Y162973D01*
X257106Y163502D01*
X257393Y164193D01*
Y164942D01*
X257106Y165633D01*
X256577Y166162D01*
X255886Y166448D01*
D02*
G37*
G36*
X182640Y160712D02*
Y159411D01*
X183940D01*
X183739Y159897D01*
X183125Y160511D01*
X182640Y160712D01*
D02*
G37*
G36*
X181140D02*
X180654Y160511D01*
X180041Y159897D01*
X179840Y159411D01*
X181140D01*
Y160712D01*
D02*
G37*
G36*
X264923Y159137D02*
Y157837D01*
X266223D01*
X266022Y158322D01*
X265409Y158936D01*
X264923Y159137D01*
D02*
G37*
G36*
X263423D02*
X262938Y158936D01*
X262324Y158322D01*
X262123Y157837D01*
X263423D01*
Y159137D01*
D02*
G37*
G36*
X183940Y157911D02*
X182640D01*
Y156611D01*
X183125Y156812D01*
X183739Y157426D01*
X183940Y157911D01*
D02*
G37*
G36*
X181140D02*
X179840D01*
X180041Y157426D01*
X180654Y156812D01*
X181140Y156611D01*
Y157911D01*
D02*
G37*
G36*
X190514Y156381D02*
Y155081D01*
X191814D01*
X191613Y155566D01*
X190999Y156180D01*
X190514Y156381D01*
D02*
G37*
G36*
X189014D02*
X188528Y156180D01*
X187915Y155566D01*
X187714Y155081D01*
X189014D01*
Y156381D01*
D02*
G37*
G36*
X266223Y156337D02*
X264923D01*
Y155036D01*
X265409Y155238D01*
X266022Y155851D01*
X266223Y156337D01*
D02*
G37*
G36*
X263423D02*
X262123D01*
X262324Y155851D01*
X262938Y155238D01*
X263423Y155036D01*
Y156337D01*
D02*
G37*
G36*
X191814Y153581D02*
X190514D01*
Y152281D01*
X190999Y152482D01*
X191613Y153095D01*
X191814Y153581D01*
D02*
G37*
G36*
X189014D02*
X187714D01*
X187915Y153095D01*
X188528Y152482D01*
X189014Y152281D01*
Y153581D01*
D02*
G37*
G36*
X22855Y155228D02*
X21634D01*
X20454Y154912D01*
X19397Y154301D01*
X18534Y153438D01*
X17923Y152380D01*
X17607Y151201D01*
Y149980D01*
X17923Y148801D01*
X18534Y147743D01*
X19397Y146880D01*
X20454Y146270D01*
X21634Y145954D01*
X22855D01*
X24034Y146270D01*
X25091Y146880D01*
X25955Y147743D01*
X26565Y148801D01*
X26881Y149980D01*
Y151201D01*
X26565Y152380D01*
X25955Y153438D01*
X25091Y154301D01*
X24034Y154912D01*
X22855Y155228D01*
D02*
G37*
G36*
X268484Y140464D02*
X267736D01*
X267045Y140177D01*
X266515Y139648D01*
X266229Y138957D01*
Y138208D01*
X266515Y137517D01*
X267045Y136988D01*
X267736Y136702D01*
X268484D01*
X269176Y136988D01*
X269705Y137517D01*
X269991Y138208D01*
Y138957D01*
X269705Y139648D01*
X269176Y140177D01*
X268484Y140464D01*
D02*
G37*
G36*
X200768Y136527D02*
X200020D01*
X199328Y136240D01*
X198799Y135711D01*
X198513Y135020D01*
Y134272D01*
X198799Y133580D01*
X199328Y133051D01*
X200020Y132765D01*
X200768D01*
X201459Y133051D01*
X201988Y133580D01*
X202275Y134272D01*
Y135020D01*
X201988Y135711D01*
X201459Y136240D01*
X200768Y136527D01*
D02*
G37*
G36*
X284215Y133940D02*
Y132640D01*
X285515D01*
X285314Y133125D01*
X284700Y133739D01*
X284215Y133940D01*
D02*
G37*
G36*
X282715D02*
X282229Y133739D01*
X281615Y133125D01*
X281414Y132640D01*
X282715D01*
Y133940D01*
D02*
G37*
G36*
X285515Y131140D02*
X284215D01*
Y129840D01*
X284700Y130041D01*
X285314Y130654D01*
X285515Y131140D01*
D02*
G37*
G36*
X282715D02*
X281414D01*
X281615Y130654D01*
X282229Y130041D01*
X282715Y129840D01*
Y131140D01*
D02*
G37*
G36*
X185789Y130790D02*
Y129490D01*
X187090D01*
X186888Y129976D01*
X186275Y130589D01*
X185789Y130790D01*
D02*
G37*
G36*
X184289D02*
X183804Y130589D01*
X183190Y129976D01*
X182989Y129490D01*
X184289D01*
Y130790D01*
D02*
G37*
G36*
X187090Y127990D02*
X185789D01*
Y126690D01*
X186275Y126891D01*
X186888Y127505D01*
X187090Y127990D01*
D02*
G37*
G36*
X184289D02*
X182989D01*
X183190Y127505D01*
X183804Y126891D01*
X184289Y126690D01*
Y127990D01*
D02*
G37*
G36*
X284215Y125278D02*
Y123978D01*
X285515D01*
X285314Y124464D01*
X284700Y125077D01*
X284215Y125278D01*
D02*
G37*
G36*
X282715D02*
X282229Y125077D01*
X281615Y124464D01*
X281414Y123978D01*
X282715D01*
Y125278D01*
D02*
G37*
G36*
X185789Y122916D02*
Y121616D01*
X187090D01*
X186888Y122102D01*
X186275Y122715D01*
X185789Y122916D01*
D02*
G37*
G36*
X184289D02*
X183804Y122715D01*
X183190Y122102D01*
X182989Y121616D01*
X184289D01*
Y122916D01*
D02*
G37*
G36*
X34608D02*
Y121616D01*
X35908D01*
X35707Y122102D01*
X35094Y122715D01*
X34608Y122916D01*
D02*
G37*
G36*
X33108D02*
X32623Y122715D01*
X32009Y122102D01*
X31808Y121616D01*
X33108D01*
Y122916D01*
D02*
G37*
G36*
X285515Y122478D02*
X284215D01*
Y121178D01*
X284700Y121379D01*
X285314Y121993D01*
X285515Y122478D01*
D02*
G37*
G36*
X282715D02*
X281414D01*
X281615Y121993D01*
X282229Y121379D01*
X282715Y121178D01*
Y122478D01*
D02*
G37*
G36*
X187090Y120116D02*
X185789D01*
Y118816D01*
X186275Y119017D01*
X186888Y119631D01*
X187090Y120116D01*
D02*
G37*
G36*
X184289D02*
X182989D01*
X183190Y119631D01*
X183804Y119017D01*
X184289Y118816D01*
Y120116D01*
D02*
G37*
G36*
X35908D02*
X31808D01*
X32009Y119631D01*
X32416Y119224D01*
X32567Y118898D01*
X32416Y118571D01*
X32009Y118165D01*
X31808Y117679D01*
X35908D01*
X35707Y118165D01*
X35301Y118571D01*
X35149Y118898D01*
X35301Y119224D01*
X35707Y119631D01*
X35908Y120116D01*
D02*
G37*
G36*
X249569Y115436D02*
Y114136D01*
X250869D01*
X250668Y114621D01*
X250054Y115235D01*
X249569Y115436D01*
D02*
G37*
G36*
X248069D02*
X247583Y115235D01*
X246970Y114621D01*
X246769Y114136D01*
X248069D01*
Y115436D01*
D02*
G37*
G36*
X38545Y115042D02*
Y113742D01*
X39845D01*
X39644Y114228D01*
X39031Y114841D01*
X38545Y115042D01*
D02*
G37*
G36*
X257422Y153259D02*
X256752D01*
X256133Y153003D01*
X255659Y152529D01*
X255402Y151910D01*
Y151240D01*
X255659Y150621D01*
X255812Y150467D01*
Y129921D01*
X255909Y129434D01*
X256185Y129020D01*
X269969Y115236D01*
Y115019D01*
X270226Y114400D01*
X270700Y113926D01*
X271319Y113670D01*
X271989D01*
X272608Y113926D01*
X273081Y114400D01*
X273338Y115019D01*
Y115689D01*
X273081Y116308D01*
X272608Y116782D01*
X271989Y117039D01*
X271772D01*
X258361Y130449D01*
Y150467D01*
X258514Y150621D01*
X258771Y151240D01*
Y151910D01*
X258514Y152529D01*
X258041Y153003D01*
X257422Y153259D01*
D02*
G37*
G36*
X250869Y112636D02*
X249569D01*
Y111336D01*
X250054Y111537D01*
X250668Y112150D01*
X250869Y112636D01*
D02*
G37*
G36*
X248069D02*
X246769D01*
X246970Y112150D01*
X247583Y111537D01*
X248069Y111336D01*
Y112636D01*
D02*
G37*
G36*
X222027Y113693D02*
X221279D01*
X220588Y113407D01*
X220058Y112877D01*
X219772Y112186D01*
Y111438D01*
X220058Y110746D01*
X220588Y110217D01*
X221279Y109931D01*
X222027D01*
X222719Y110217D01*
X223248Y110746D01*
X223534Y111438D01*
Y112186D01*
X223248Y112877D01*
X222719Y113407D01*
X222027Y113693D01*
D02*
G37*
G36*
X152664Y111794D02*
X151806D01*
X150977Y111572D01*
X150234Y111142D01*
X149627Y110536D01*
X149198Y109792D01*
X148976Y108964D01*
Y108105D01*
X149198Y107277D01*
X149627Y106533D01*
X150234Y105927D01*
X150977Y105498D01*
X151806Y105275D01*
X152664D01*
X153493Y105498D01*
X154236Y105927D01*
X154843Y106533D01*
X155272Y107277D01*
X155494Y108105D01*
Y108964D01*
X155272Y109792D01*
X154843Y110536D01*
X154236Y111142D01*
X153493Y111572D01*
X152664Y111794D01*
D02*
G37*
G36*
X237333Y218466D02*
X236585D01*
X235893Y218180D01*
X235364Y217651D01*
X235078Y216960D01*
Y216211D01*
X235282Y215718D01*
X235192Y215263D01*
Y121928D01*
X220608Y107345D01*
X220288Y106865D01*
X220175Y106299D01*
Y97639D01*
X220059Y97522D01*
X219772Y96831D01*
Y96083D01*
X220059Y95391D01*
X220588Y94862D01*
X221279Y94576D01*
X222028D01*
X222719Y94862D01*
X223248Y95391D01*
X223535Y96083D01*
Y96831D01*
X223248Y97522D01*
X223132Y97639D01*
Y105687D01*
X224096Y106650D01*
X224760Y106608D01*
X224783Y106577D01*
X224497Y105886D01*
Y105138D01*
X224783Y104446D01*
X225312Y103917D01*
X226004Y103631D01*
X226752D01*
X227444Y103917D01*
X227973Y104446D01*
X228259Y105138D01*
Y105886D01*
X227973Y106577D01*
X228087Y107098D01*
X241444Y120455D01*
X241764Y120935D01*
X241877Y121501D01*
Y167206D01*
X241764Y167772D01*
X241444Y168252D01*
X240848Y168847D01*
Y213060D01*
X240896Y213108D01*
X241182Y213799D01*
Y214547D01*
X240896Y215239D01*
X240367Y215768D01*
X239675Y216054D01*
X239302D01*
X238901Y216190D01*
X238840Y216516D01*
Y216960D01*
X238554Y217651D01*
X238024Y218180D01*
X237333Y218466D01*
D02*
G37*
G36*
X39845Y104368D02*
X38545D01*
Y103068D01*
X39031Y103269D01*
X39644Y103883D01*
X39845Y104368D01*
D02*
G37*
G36*
X35908Y116179D02*
X31808D01*
X32009Y115694D01*
X32416Y115287D01*
X32567Y114961D01*
X32416Y114634D01*
X32009Y114228D01*
X31808Y113742D01*
X33858D01*
Y112242D01*
X31808D01*
X32009Y111757D01*
X32416Y111350D01*
X32567Y111024D01*
X32416Y110697D01*
X32009Y110291D01*
X31808Y109805D01*
X33858D01*
Y108305D01*
X31808D01*
X32009Y107820D01*
X32416Y107413D01*
X32567Y107087D01*
X32416Y106760D01*
X32009Y106354D01*
X31808Y105868D01*
X33858D01*
Y105118D01*
X34608D01*
Y103068D01*
X35094Y103269D01*
X35500Y103675D01*
X35827Y103827D01*
X36153Y103675D01*
X36560Y103269D01*
X37045Y103068D01*
Y105118D01*
X37795D01*
Y105868D01*
X39845D01*
X39644Y106354D01*
X39238Y106760D01*
X39086Y107087D01*
X39238Y107413D01*
X39644Y107820D01*
X39845Y108305D01*
X37795D01*
Y109805D01*
X39845D01*
X39644Y110291D01*
X39238Y110697D01*
X39086Y111024D01*
X39238Y111350D01*
X39644Y111757D01*
X39845Y112242D01*
X37795D01*
Y112992D01*
X37045D01*
Y115042D01*
X36560Y114841D01*
X36153Y114435D01*
X35827Y114283D01*
X35500Y114435D01*
X35301Y114634D01*
X35149Y114961D01*
X35301Y115287D01*
X35707Y115694D01*
X35908Y116179D01*
D02*
G37*
G36*
X33108Y104368D02*
X31808D01*
X32009Y103883D01*
X32623Y103269D01*
X33108Y103068D01*
Y104368D01*
D02*
G37*
G36*
X268878Y99519D02*
X268130D01*
X267438Y99233D01*
X266909Y98703D01*
X266623Y98012D01*
Y97264D01*
X266909Y96572D01*
X267438Y96043D01*
X268130Y95757D01*
X268878D01*
X269569Y96043D01*
X270099Y96572D01*
X270385Y97264D01*
Y98012D01*
X270099Y98703D01*
X269569Y99233D01*
X268878Y99519D01*
D02*
G37*
G36*
X261004D02*
X260256D01*
X259564Y99233D01*
X259035Y98703D01*
X258749Y98012D01*
Y97264D01*
X259035Y96572D01*
X259564Y96043D01*
X260256Y95757D01*
X261004D01*
X261696Y96043D01*
X262225Y96572D01*
X262511Y97264D01*
Y98012D01*
X262225Y98703D01*
X261696Y99233D01*
X261004Y99519D01*
D02*
G37*
G36*
X253130D02*
X252382D01*
X251690Y99233D01*
X251161Y98703D01*
X250875Y98012D01*
Y97264D01*
X251161Y96572D01*
X251690Y96043D01*
X252382Y95757D01*
X253130D01*
X253821Y96043D01*
X254351Y96572D01*
X254637Y97264D01*
Y98012D01*
X254351Y98703D01*
X253821Y99233D01*
X253130Y99519D01*
D02*
G37*
G36*
X138784Y98174D02*
X137847D01*
X136942Y97932D01*
X136159Y97479D01*
X138316Y95322D01*
X140473Y97479D01*
X139690Y97932D01*
X138784Y98174D01*
D02*
G37*
G36*
X135452Y96772D02*
X134999Y95989D01*
X134757Y95084D01*
Y94147D01*
X134999Y93241D01*
X135452Y92458D01*
X137609Y94615D01*
X135452Y96772D01*
D02*
G37*
G36*
X141180D02*
X139023Y94615D01*
X141180Y92458D01*
X141632Y93241D01*
X141875Y94147D01*
Y95084D01*
X141632Y95989D01*
X141180Y96772D01*
D02*
G37*
G36*
X138316Y93908D02*
X136159Y91751D01*
X136942Y91299D01*
X137847Y91056D01*
X138784D01*
X139690Y91299D01*
X140473Y91751D01*
X138316Y93908D01*
D02*
G37*
G36*
X74840Y89845D02*
X74355Y89644D01*
X73949Y89238D01*
X73622Y89086D01*
X73295Y89238D01*
X72889Y89644D01*
X72404Y89845D01*
Y87795D01*
Y85745D01*
X72889Y85946D01*
X73295Y86353D01*
X73622Y86504D01*
X73949Y86353D01*
X74355Y85946D01*
X74840Y85745D01*
Y87795D01*
Y89845D01*
D02*
G37*
G36*
X66966D02*
X66481Y89644D01*
X66075Y89238D01*
X65748Y89086D01*
X65421Y89238D01*
X65015Y89644D01*
X64530Y89845D01*
Y87795D01*
Y85745D01*
X65015Y85946D01*
X65421Y86353D01*
X65748Y86504D01*
X66075Y86353D01*
X66481Y85946D01*
X66966Y85745D01*
Y87795D01*
Y89845D01*
D02*
G37*
G36*
X63029D02*
X62544Y89644D01*
X62138Y89238D01*
X61811Y89086D01*
X61484Y89238D01*
X61078Y89644D01*
X60593Y89845D01*
Y87795D01*
Y85745D01*
X61078Y85946D01*
X61484Y86353D01*
X61811Y86504D01*
X62138Y86353D01*
X62544Y85946D01*
X63029Y85745D01*
Y87795D01*
Y89845D01*
D02*
G37*
G36*
X59092D02*
X58607Y89644D01*
X58201Y89238D01*
X57874Y89086D01*
X57547Y89238D01*
X57141Y89644D01*
X56656Y89845D01*
Y87795D01*
Y85745D01*
X57141Y85946D01*
X57547Y86353D01*
X57874Y86504D01*
X58201Y86353D01*
X58607Y85946D01*
X59092Y85745D01*
Y87795D01*
Y89845D01*
D02*
G37*
G36*
X55155D02*
X54670Y89644D01*
X54264Y89238D01*
X53937Y89086D01*
X53610Y89238D01*
X53204Y89644D01*
X52719Y89845D01*
Y87795D01*
Y85745D01*
X53204Y85946D01*
X53610Y86353D01*
X53937Y86504D01*
X54264Y86353D01*
X54670Y85946D01*
X55155Y85745D01*
Y87795D01*
Y89845D01*
D02*
G37*
G36*
X70903D02*
X70418Y89644D01*
X70012Y89238D01*
X69685Y89086D01*
X69358Y89238D01*
X68952Y89644D01*
X68467Y89845D01*
Y87795D01*
Y85745D01*
X68952Y85946D01*
X69358Y86353D01*
X69685Y86504D01*
X70012Y86353D01*
X70418Y85946D01*
X70903Y85745D01*
Y87795D01*
Y89845D01*
D02*
G37*
G36*
X51218D02*
X50733Y89644D01*
X50327Y89238D01*
X50000Y89086D01*
X49673Y89238D01*
X49267Y89644D01*
X48781Y89845D01*
Y87795D01*
Y85745D01*
X49267Y85946D01*
X49673Y86353D01*
X50000Y86504D01*
X50327Y86353D01*
X50733Y85946D01*
X51218Y85745D01*
Y87795D01*
Y89845D01*
D02*
G37*
G36*
X76341D02*
Y88545D01*
X77641D01*
X77440Y89031D01*
X76826Y89644D01*
X76341Y89845D01*
D02*
G37*
G36*
X47282D02*
X46796Y89644D01*
X46183Y89031D01*
X45981Y88545D01*
X47282D01*
Y89845D01*
D02*
G37*
G36*
X208642Y92039D02*
X207894D01*
X207202Y91752D01*
X206673Y91223D01*
X206387Y90532D01*
Y89783D01*
X206673Y89092D01*
X207202Y88563D01*
X207894Y88276D01*
X208642D01*
X209333Y88563D01*
X209862Y89092D01*
X210149Y89783D01*
Y90532D01*
X209862Y91223D01*
X209333Y91752D01*
X208642Y92039D01*
D02*
G37*
G36*
X282480Y96002D02*
X280512D01*
X279712Y95897D01*
X278967Y95588D01*
X278328Y95097D01*
X277837Y94458D01*
X277528Y93713D01*
X277423Y92913D01*
X277528Y92114D01*
X277837Y91369D01*
X278328Y90729D01*
X278705Y90440D01*
X278737Y90299D01*
X278677Y89838D01*
X278114Y89406D01*
X277575Y88704D01*
X277236Y87886D01*
X277186Y87508D01*
X281496D01*
X285806D01*
X285756Y87886D01*
X285417Y88704D01*
X284878Y89406D01*
X284315Y89838D01*
X284256Y90299D01*
X284287Y90440D01*
X284664Y90729D01*
X285155Y91369D01*
X285464Y92114D01*
X285569Y92913D01*
X285464Y93713D01*
X285155Y94458D01*
X284664Y95097D01*
X284025Y95588D01*
X283280Y95897D01*
X282480Y96002D01*
D02*
G37*
G36*
X77641Y87045D02*
X76341D01*
Y85745D01*
X76826Y85946D01*
X77440Y86560D01*
X77641Y87045D01*
D02*
G37*
G36*
X47282D02*
X45981D01*
X46183Y86560D01*
X46796Y85946D01*
X47282Y85745D01*
Y87045D01*
D02*
G37*
G36*
X269254Y80790D02*
Y79490D01*
X270554D01*
X270353Y79976D01*
X269739Y80589D01*
X269254Y80790D01*
D02*
G37*
G36*
X267754D02*
X267268Y80589D01*
X266655Y79976D01*
X266454Y79490D01*
X267754D01*
Y80790D01*
D02*
G37*
G36*
X261380D02*
Y79490D01*
X262680D01*
X262479Y79976D01*
X261865Y80589D01*
X261380Y80790D01*
D02*
G37*
G36*
X259880D02*
X259394Y80589D01*
X258781Y79976D01*
X258580Y79490D01*
X259880D01*
Y80790D01*
D02*
G37*
G36*
X253506D02*
Y79490D01*
X254806D01*
X254605Y79976D01*
X253991Y80589D01*
X253506Y80790D01*
D02*
G37*
G36*
X252006D02*
X251520Y80589D01*
X250907Y79976D01*
X250706Y79490D01*
X252006D01*
Y80790D01*
D02*
G37*
G36*
X270554Y77990D02*
X269254D01*
Y76690D01*
X269739Y76891D01*
X270353Y77505D01*
X270554Y77990D01*
D02*
G37*
G36*
X267754D02*
X266454D01*
X266655Y77505D01*
X267268Y76891D01*
X267754Y76690D01*
Y77990D01*
D02*
G37*
G36*
X262680D02*
X261380D01*
Y76690D01*
X261865Y76891D01*
X262479Y77505D01*
X262680Y77990D01*
D02*
G37*
G36*
X259880D02*
X258580D01*
X258781Y77505D01*
X259394Y76891D01*
X259880Y76690D01*
Y77990D01*
D02*
G37*
G36*
X254806D02*
X253506D01*
Y76690D01*
X253991Y76891D01*
X254605Y77505D01*
X254806Y77990D01*
D02*
G37*
G36*
X252006D02*
X250706D01*
X250907Y77505D01*
X251520Y76891D01*
X252006Y76690D01*
Y77990D01*
D02*
G37*
G36*
X74840Y70948D02*
X74355Y70747D01*
X73949Y70340D01*
X73622Y70189D01*
X73295Y70340D01*
X72889Y70747D01*
X72404Y70948D01*
Y68898D01*
Y66847D01*
X72889Y67049D01*
X73295Y67455D01*
X73622Y67607D01*
X73949Y67455D01*
X74355Y67049D01*
X74840Y66847D01*
Y68898D01*
Y70948D01*
D02*
G37*
G36*
X66966D02*
X66481Y70747D01*
X66075Y70340D01*
X65748Y70189D01*
X65421Y70340D01*
X65015Y70747D01*
X64530Y70948D01*
Y68898D01*
Y66847D01*
X65015Y67049D01*
X65421Y67455D01*
X65748Y67607D01*
X66075Y67455D01*
X66481Y67049D01*
X66966Y66847D01*
Y68898D01*
Y70948D01*
D02*
G37*
G36*
X63029D02*
X62544Y70747D01*
X62138Y70340D01*
X61811Y70189D01*
X61484Y70340D01*
X61078Y70747D01*
X60593Y70948D01*
Y68898D01*
Y66847D01*
X61078Y67049D01*
X61484Y67455D01*
X61811Y67607D01*
X62138Y67455D01*
X62544Y67049D01*
X63029Y66847D01*
Y68898D01*
Y70948D01*
D02*
G37*
G36*
X59092D02*
X58607Y70747D01*
X58201Y70340D01*
X57874Y70189D01*
X57547Y70340D01*
X57141Y70747D01*
X56656Y70948D01*
Y68898D01*
Y66847D01*
X57141Y67049D01*
X57547Y67455D01*
X57874Y67607D01*
X58201Y67455D01*
X58607Y67049D01*
X59092Y66847D01*
Y68898D01*
Y70948D01*
D02*
G37*
G36*
X55155D02*
X54670Y70747D01*
X54264Y70340D01*
X53937Y70189D01*
X53610Y70340D01*
X53204Y70747D01*
X52719Y70948D01*
Y68898D01*
Y66847D01*
X53204Y67049D01*
X53610Y67455D01*
X53937Y67607D01*
X54264Y67455D01*
X54670Y67049D01*
X55155Y66847D01*
Y68898D01*
Y70948D01*
D02*
G37*
G36*
X70903D02*
X70418Y70747D01*
X70012Y70340D01*
X69685Y70189D01*
X69358Y70340D01*
X68952Y70747D01*
X68467Y70948D01*
Y68898D01*
Y66847D01*
X68952Y67049D01*
X69358Y67455D01*
X69685Y67607D01*
X70012Y67455D01*
X70418Y67049D01*
X70903Y66847D01*
Y68898D01*
Y70948D01*
D02*
G37*
G36*
X51218D02*
X50733Y70747D01*
X50327Y70340D01*
X50000Y70189D01*
X49673Y70340D01*
X49267Y70747D01*
X48781Y70948D01*
Y68898D01*
Y66847D01*
X49267Y67049D01*
X49673Y67455D01*
X50000Y67607D01*
X50327Y67455D01*
X50733Y67049D01*
X51218Y66847D01*
Y68898D01*
Y70948D01*
D02*
G37*
G36*
X76341D02*
Y69648D01*
X77641D01*
X77440Y70133D01*
X76826Y70747D01*
X76341Y70948D01*
D02*
G37*
G36*
X47282D02*
X46796Y70747D01*
X46183Y70133D01*
X45981Y69648D01*
X47282D01*
Y70948D01*
D02*
G37*
G36*
X77641Y68148D02*
X76341D01*
Y66847D01*
X76826Y67049D01*
X77440Y67662D01*
X77641Y68148D01*
D02*
G37*
G36*
X47282D02*
X45981D01*
X46183Y67662D01*
X46796Y67049D01*
X47282Y66847D01*
Y68148D01*
D02*
G37*
G36*
X285806Y86508D02*
X281496D01*
X277186D01*
X277236Y86130D01*
X277575Y85312D01*
X278114Y84610D01*
X278677Y84178D01*
X278737Y83716D01*
X278705Y83576D01*
X278328Y83286D01*
X277837Y82647D01*
X277528Y81902D01*
X277423Y81102D01*
X277528Y80303D01*
X277837Y79558D01*
X278328Y78918D01*
X278967Y78427D01*
X279035Y78400D01*
Y77900D01*
X278967Y77872D01*
X278328Y77381D01*
X277837Y76741D01*
X277528Y75996D01*
X277423Y75197D01*
X277528Y74397D01*
X277837Y73652D01*
X278328Y73013D01*
X278967Y72522D01*
X279035Y72494D01*
Y71994D01*
X278967Y71966D01*
X278328Y71475D01*
X277837Y70836D01*
X277528Y70091D01*
X277423Y69291D01*
X277528Y68492D01*
X277837Y67747D01*
X278328Y67107D01*
X278967Y66616D01*
X279035Y66589D01*
Y66089D01*
X278967Y66061D01*
X278328Y65570D01*
X277837Y64930D01*
X277528Y64185D01*
X277423Y63386D01*
X277528Y62586D01*
X277837Y61841D01*
X278328Y61202D01*
X278967Y60711D01*
X279712Y60402D01*
X280512Y60297D01*
X282480D01*
X283280Y60402D01*
X284025Y60711D01*
X284664Y61202D01*
X285155Y61841D01*
X285464Y62586D01*
X285569Y63386D01*
X285464Y64185D01*
X285155Y64930D01*
X284664Y65570D01*
X284025Y66061D01*
X283957Y66089D01*
Y66589D01*
X284025Y66616D01*
X284664Y67107D01*
X285155Y67747D01*
X285464Y68492D01*
X285569Y69291D01*
X285464Y70091D01*
X285155Y70836D01*
X284664Y71475D01*
X284025Y71966D01*
X283957Y71994D01*
Y72494D01*
X284025Y72522D01*
X284664Y73013D01*
X285155Y73652D01*
X285464Y74397D01*
X285569Y75197D01*
X285464Y75996D01*
X285155Y76741D01*
X284664Y77381D01*
X284025Y77872D01*
X283957Y77900D01*
Y78400D01*
X284025Y78427D01*
X284664Y78918D01*
X285155Y79558D01*
X285464Y80303D01*
X285569Y81102D01*
X285464Y81902D01*
X285155Y82647D01*
X284664Y83286D01*
X284287Y83576D01*
X284256Y83716D01*
X284315Y84178D01*
X284878Y84610D01*
X285417Y85312D01*
X285756Y86130D01*
X285806Y86508D01*
D02*
G37*
G36*
X52303Y155228D02*
X51634D01*
X51014Y154971D01*
X50541Y154497D01*
X50284Y153878D01*
Y153208D01*
X50490Y152711D01*
Y143307D01*
X50603Y142741D01*
X50923Y142262D01*
X57222Y135962D01*
X57702Y135642D01*
X58268Y135529D01*
X96138D01*
X96530Y135137D01*
Y131102D01*
X96585Y130829D01*
X96739Y130598D01*
X98314Y129023D01*
X98546Y128868D01*
X98819Y128814D01*
X104429D01*
X105040Y128202D01*
Y125984D01*
X105150Y125149D01*
X105473Y124371D01*
X105985Y123702D01*
X113308Y116380D01*
Y70866D01*
X113418Y70031D01*
X113740Y69252D01*
X114253Y68584D01*
X123997Y58840D01*
X124666Y58327D01*
X125444Y58004D01*
X126279Y57894D01*
X172986D01*
X174102Y56779D01*
X174333Y56624D01*
X174606Y56570D01*
X187401D01*
X187675Y56624D01*
X187906Y56779D01*
X190261Y59134D01*
X252471D01*
X252571Y58634D01*
X252419Y58571D01*
X251861Y58013D01*
X251706Y57639D01*
X255380D01*
X255225Y58013D01*
X254667Y58571D01*
X254516Y58634D01*
X254615Y59134D01*
X261122D01*
X261883Y59285D01*
X262528Y59716D01*
X266367Y63555D01*
X266797Y64200D01*
X266949Y64961D01*
Y65748D01*
X266797Y66509D01*
X266367Y67154D01*
X265722Y67585D01*
X264961Y67736D01*
X264200Y67585D01*
X263555Y67154D01*
X263124Y66509D01*
X262981Y65793D01*
X260298Y63110D01*
X190261D01*
X187906Y65465D01*
X187675Y65620D01*
X187402Y65674D01*
X175197D01*
X174924Y65620D01*
X174692Y65465D01*
X173576Y64350D01*
X127617D01*
X119763Y72203D01*
Y117717D01*
X119653Y118552D01*
X119331Y119330D01*
X118818Y119999D01*
X111495Y127321D01*
Y128202D01*
X112107Y128814D01*
X115748D01*
X116021Y128868D01*
X116253Y129023D01*
X117434Y130204D01*
X117588Y130436D01*
X117643Y130709D01*
Y143307D01*
X117588Y143580D01*
X117434Y143812D01*
X116253Y144993D01*
X116253Y144993D01*
X116021Y145148D01*
X115748Y145202D01*
X98425D01*
X98152Y145148D01*
X97921Y144993D01*
X96739Y143812D01*
X96585Y143580D01*
X96530Y143307D01*
Y138878D01*
X96138Y138486D01*
X58880D01*
X53447Y143920D01*
Y152711D01*
X53653Y153208D01*
Y153878D01*
X53396Y154497D01*
X52923Y154971D01*
X52303Y155228D01*
D02*
G37*
G36*
X255380Y56139D02*
X254293D01*
Y55052D01*
X254667Y55207D01*
X255225Y55765D01*
X255380Y56139D01*
D02*
G37*
G36*
X252793D02*
X251706D01*
X251861Y55765D01*
X252419Y55207D01*
X252793Y55052D01*
Y56139D01*
D02*
G37*
G36*
X31065Y52838D02*
Y51537D01*
X32365D01*
X32164Y52023D01*
X31550Y52636D01*
X31065Y52838D01*
D02*
G37*
G36*
X29565D02*
X29079Y52636D01*
X28466Y52023D01*
X28265Y51537D01*
X29565D01*
Y52838D01*
D02*
G37*
G36*
X205474Y57735D02*
Y49667D01*
X209704D01*
Y52854D01*
X209534Y54143D01*
X209037Y55344D01*
X208245Y56375D01*
X207214Y57167D01*
X206013Y57664D01*
X205474Y57735D01*
D02*
G37*
G36*
X203974D02*
X203436Y57664D01*
X202235Y57167D01*
X201203Y56375D01*
X200412Y55344D01*
X199915Y54143D01*
X199745Y52854D01*
Y49667D01*
X203974D01*
Y57735D01*
D02*
G37*
G36*
X32365Y50037D02*
X28265D01*
X28466Y49552D01*
X28872Y49145D01*
X29024Y48819D01*
X28872Y48492D01*
X28466Y48086D01*
X28265Y47600D01*
X32365D01*
X32164Y48086D01*
X31758Y48492D01*
X31606Y48819D01*
X31758Y49145D01*
X32164Y49552D01*
X32365Y50037D01*
D02*
G37*
G36*
X72010Y44963D02*
Y43663D01*
X73310D01*
X73109Y44149D01*
X72495Y44762D01*
X72010Y44963D01*
D02*
G37*
G36*
X70510D02*
X70024Y44762D01*
X69411Y44149D01*
X69210Y43663D01*
X70510D01*
Y44963D01*
D02*
G37*
G36*
X32365Y46100D02*
X28265D01*
X28466Y45615D01*
X28872Y45208D01*
X29024Y44882D01*
X28872Y44555D01*
X28466Y44149D01*
X28265Y43663D01*
X32365D01*
X32164Y44149D01*
X31758Y44555D01*
X31606Y44882D01*
X31758Y45208D01*
X32164Y45615D01*
X32365Y46100D01*
D02*
G37*
G36*
X73310Y42163D02*
X72010D01*
Y40863D01*
X72495Y41064D01*
X73109Y41678D01*
X73310Y42163D01*
D02*
G37*
G36*
X70510D02*
X69210D01*
X69411Y41678D01*
X70024Y41064D01*
X70510Y40863D01*
Y42163D01*
D02*
G37*
G36*
X209704Y48167D02*
X205474D01*
Y40099D01*
X206013Y40170D01*
X207214Y40668D01*
X208245Y41459D01*
X209037Y42491D01*
X209534Y43692D01*
X209704Y44980D01*
Y48167D01*
D02*
G37*
G36*
X203974D02*
X199745D01*
Y44980D01*
X199915Y43692D01*
X200412Y42491D01*
X201203Y41459D01*
X202235Y40668D01*
X203436Y40170D01*
X203974Y40099D01*
Y48167D01*
D02*
G37*
G36*
X32365Y42163D02*
X28265D01*
X28466Y41678D01*
X28872Y41271D01*
X29024Y40945D01*
X28872Y40618D01*
X28466Y40212D01*
X28265Y39726D01*
X32365D01*
X32164Y40212D01*
X31758Y40618D01*
X31606Y40945D01*
X31758Y41271D01*
X32164Y41678D01*
X32365Y42163D01*
D02*
G37*
G36*
X189764Y41298D02*
X186577D01*
Y37069D01*
X194645D01*
X194574Y37608D01*
X194076Y38809D01*
X193285Y39840D01*
X192254Y40631D01*
X191053Y41129D01*
X189764Y41298D01*
D02*
G37*
G36*
X185077D02*
X181890D01*
X180601Y41129D01*
X179400Y40631D01*
X178369Y39840D01*
X177577Y38809D01*
X177080Y37608D01*
X177009Y37069D01*
X185077D01*
Y41298D01*
D02*
G37*
G36*
X32365Y38226D02*
X28265D01*
X28466Y37741D01*
X28872Y37334D01*
X29024Y37008D01*
X28872Y36681D01*
X28466Y36275D01*
X28265Y35789D01*
X32365D01*
X32164Y36275D01*
X31758Y36681D01*
X31606Y37008D01*
X31758Y37334D01*
X32164Y37741D01*
X32365Y38226D01*
D02*
G37*
G36*
X241301Y35908D02*
Y34608D01*
X242601D01*
X242400Y35094D01*
X241787Y35707D01*
X241301Y35908D01*
D02*
G37*
G36*
X239801D02*
X239316Y35707D01*
X238702Y35094D01*
X238501Y34608D01*
X239801D01*
Y35908D01*
D02*
G37*
G36*
X253879Y37708D02*
X253209D01*
X252590Y37452D01*
X252116Y36978D01*
X251859Y36359D01*
Y35689D01*
X252116Y35070D01*
X252590Y34596D01*
X253209Y34340D01*
X253879D01*
X254498Y34596D01*
X254972Y35070D01*
X255228Y35689D01*
Y36359D01*
X254972Y36978D01*
X254498Y37452D01*
X253879Y37708D01*
D02*
G37*
G36*
X32365Y34289D02*
X28265D01*
X28466Y33804D01*
X28872Y33397D01*
X29024Y33071D01*
X28872Y32744D01*
X28466Y32338D01*
X28265Y31852D01*
X32365D01*
X32164Y32338D01*
X31758Y32744D01*
X31606Y33071D01*
X31758Y33397D01*
X32164Y33804D01*
X32365Y34289D01*
D02*
G37*
G36*
X242601Y33108D02*
X241301D01*
Y31808D01*
X241787Y32009D01*
X242400Y32623D01*
X242601Y33108D01*
D02*
G37*
G36*
X239801D02*
X238501D01*
X238702Y32623D01*
X239316Y32009D01*
X239801Y31808D01*
Y33108D01*
D02*
G37*
G36*
X12185Y35150D02*
X11436D01*
X10745Y34863D01*
X10216Y34334D01*
X9929Y33643D01*
Y32894D01*
X10216Y32203D01*
X10745Y31674D01*
X11436Y31387D01*
X12185D01*
X12876Y31674D01*
X13405Y32203D01*
X13692Y32894D01*
Y33643D01*
X13405Y34334D01*
X12876Y34863D01*
X12185Y35150D01*
D02*
G37*
G36*
X194645Y35569D02*
X186577D01*
Y31339D01*
X189764D01*
X191053Y31509D01*
X192254Y32006D01*
X193285Y32798D01*
X194076Y33829D01*
X194574Y35030D01*
X194645Y35569D01*
D02*
G37*
G36*
X185077D02*
X177009D01*
X177080Y35030D01*
X177577Y33829D01*
X178369Y32798D01*
X179400Y32006D01*
X180601Y31509D01*
X181890Y31339D01*
X185077D01*
Y35569D01*
D02*
G37*
G36*
X32365Y30352D02*
X28265D01*
X28466Y29867D01*
X28872Y29460D01*
X29024Y29134D01*
X28872Y28807D01*
X28466Y28401D01*
X28265Y27915D01*
X32365D01*
X32164Y28401D01*
X31758Y28807D01*
X31606Y29134D01*
X31758Y29460D01*
X32164Y29867D01*
X32365Y30352D01*
D02*
G37*
G36*
Y26415D02*
X31065D01*
Y25115D01*
X31550Y25316D01*
X32164Y25930D01*
X32365Y26415D01*
D02*
G37*
G36*
X29565D02*
X28265D01*
X28466Y25930D01*
X29079Y25316D01*
X29565Y25115D01*
Y26415D01*
D02*
G37*
G36*
X49193Y32590D02*
X48445D01*
X47753Y32303D01*
X47224Y31774D01*
X46938Y31083D01*
Y30334D01*
X47224Y29643D01*
X47753Y29114D01*
X48002Y29011D01*
Y28470D01*
X47753Y28366D01*
X47224Y27837D01*
X46938Y27146D01*
Y26397D01*
X47224Y25706D01*
X47753Y25177D01*
X48445Y24891D01*
X49193D01*
X49885Y25177D01*
X50414Y25706D01*
X50700Y26397D01*
Y27146D01*
X50414Y27837D01*
X49885Y28366D01*
X49635Y28470D01*
Y29011D01*
X49885Y29114D01*
X50414Y29643D01*
X50700Y30334D01*
Y31083D01*
X50414Y31774D01*
X49885Y32303D01*
X49193Y32590D01*
D02*
G37*
G36*
X186489Y23636D02*
X185164D01*
X183884Y23293D01*
X182736Y22630D01*
X181799Y21693D01*
X181136Y20545D01*
X180793Y19265D01*
Y17940D01*
X181136Y16659D01*
X181799Y15511D01*
X182736Y14574D01*
X183884Y13912D01*
X185164Y13568D01*
X186489D01*
X187770Y13912D01*
X188918Y14574D01*
X189855Y15511D01*
X190518Y16659D01*
X190861Y17940D01*
Y19265D01*
X190518Y20545D01*
X189855Y21693D01*
X188918Y22630D01*
X187770Y23293D01*
X186489Y23636D01*
D02*
G37*
G36*
X26336Y14286D02*
X25633D01*
X24953Y14104D01*
X24344Y13752D01*
X23846Y13255D01*
X23495Y12645D01*
X23313Y11966D01*
Y11262D01*
X23495Y10583D01*
X23846Y9974D01*
X24344Y9476D01*
X24953Y9125D01*
X25633Y8942D01*
X26336D01*
X27016Y9125D01*
X27625Y9476D01*
X28122Y9974D01*
X28474Y10583D01*
X28656Y11262D01*
Y11966D01*
X28474Y12645D01*
X28122Y13255D01*
X27625Y13752D01*
X27016Y14104D01*
X26336Y14286D01*
D02*
G37*
G36*
X14525D02*
X13822D01*
X13142Y14104D01*
X12533Y13752D01*
X12035Y13255D01*
X11684Y12645D01*
X11502Y11966D01*
Y11262D01*
X11684Y10583D01*
X12035Y9974D01*
X12533Y9476D01*
X13142Y9125D01*
X13822Y8942D01*
X14525D01*
X15204Y9125D01*
X15814Y9476D01*
X16311Y9974D01*
X16663Y10583D01*
X16845Y11262D01*
Y11966D01*
X16663Y12645D01*
X16311Y13255D01*
X15814Y13752D01*
X15204Y14104D01*
X14525Y14286D01*
D02*
G37*
%LPD*%
G36*
X116929Y143307D02*
Y130709D01*
X115748Y129528D01*
X111811D01*
X110630Y128347D01*
X105905Y128347D01*
X104724Y129528D01*
X98819D01*
X97244Y131102D01*
Y135433D01*
X96398Y136279D01*
Y137737D01*
X97244Y138583D01*
Y143307D01*
X98425Y144488D01*
X115748D01*
X116929Y143307D01*
D02*
G37*
G36*
X190546Y61816D02*
Y60428D01*
X187401Y57284D01*
X174606D01*
X173031Y58858D01*
Y62795D01*
X175197Y64961D01*
X187402D01*
X190546Y61816D01*
D02*
G37*
%LPC*%
G36*
X339886Y132633D02*
Y130193D01*
X342325D01*
X342152Y130839D01*
X341761Y131516D01*
X341208Y132069D01*
X340531Y132459D01*
X339886Y132633D01*
D02*
G37*
G36*
X375984Y102682D02*
X364567D01*
X364294Y102628D01*
X364062Y102473D01*
X363669Y102079D01*
X363514Y101848D01*
X363459Y101575D01*
Y97244D01*
X363498Y97050D01*
Y96416D01*
X363991D01*
X364062Y96346D01*
X364294Y96191D01*
X364567Y96137D01*
X375984D01*
X376257Y96191D01*
X376489Y96346D01*
X376883Y96739D01*
X377037Y96971D01*
X377092Y97244D01*
Y101575D01*
X377037Y101848D01*
X376883Y102079D01*
X376489Y102473D01*
X376257Y102628D01*
X375984Y102682D01*
D02*
G37*
G36*
X379278Y76763D02*
X376878D01*
Y74713D01*
X379278D01*
Y76763D01*
D02*
G37*
G36*
X375878D02*
X373478D01*
Y74713D01*
X375878D01*
Y76763D01*
D02*
G37*
G36*
X384252Y85753D02*
X381496D01*
X381223Y85699D01*
X380991Y85544D01*
X380596Y85149D01*
X380009D01*
Y84321D01*
X379995Y84252D01*
Y72441D01*
X380049Y72168D01*
X380078Y72126D01*
Y71963D01*
X380186D01*
X380204Y71936D01*
X380598Y71543D01*
X380829Y71388D01*
X381102Y71333D01*
X384646D01*
X384919Y71388D01*
X385150Y71543D01*
X385544Y71936D01*
X385699Y72168D01*
X385753Y72441D01*
Y84252D01*
X385699Y84525D01*
X385544Y84757D01*
X384757Y85544D01*
X384525Y85699D01*
X384252Y85753D01*
D02*
G37*
G36*
X363198Y71995D02*
X362786Y71994D01*
Y71994D01*
X360736D01*
Y71260D01*
X365248D01*
Y71995D01*
X363286D01*
X363198Y71995D01*
Y71995D01*
D02*
G37*
G36*
X379278Y73713D02*
X373478D01*
Y71663D01*
X374541D01*
X374595Y71170D01*
X374269Y70828D01*
X368321D01*
X368298Y70862D01*
Y71995D01*
X366248D01*
Y71260D01*
X366929D01*
X367717Y70472D01*
Y67323D01*
X367323Y66929D01*
X366248D01*
Y66194D01*
X368298D01*
Y66933D01*
X368376Y67050D01*
X368430Y67323D01*
Y67361D01*
X375000D01*
X375663Y67493D01*
X376226Y67869D01*
X377603Y69246D01*
X377979Y69809D01*
X378111Y70472D01*
Y71663D01*
X379278D01*
Y73713D01*
D02*
G37*
G36*
X365248Y66929D02*
X360736D01*
Y66194D01*
X362698D01*
X362786Y66194D01*
Y66194D01*
X363198Y66194D01*
Y66194D01*
X365248D01*
Y66929D01*
D02*
G37*
G36*
X321654Y27092D02*
X316535Y27092D01*
X316262Y27037D01*
X316031Y26883D01*
X315936Y26787D01*
X315339D01*
Y26190D01*
X315243Y26095D01*
X315089Y25864D01*
X315034Y25591D01*
X315034Y14961D01*
X315089Y14687D01*
X315243Y14456D01*
X316031Y13669D01*
X316262Y13514D01*
X316516Y13463D01*
Y9167D01*
X316454Y9018D01*
X320554D01*
X320492Y9167D01*
Y13460D01*
X321260D01*
X321533Y13514D01*
X321764Y13669D01*
X322946Y14850D01*
X323100Y15081D01*
X323155Y15354D01*
Y25591D01*
X323100Y25864D01*
X322946Y26095D01*
X322457Y26584D01*
Y26787D01*
X322253D01*
X322158Y26883D01*
X321927Y27037D01*
X321654Y27092D01*
D02*
G37*
G36*
X320554Y7518D02*
X319254D01*
Y6218D01*
X319739Y6419D01*
X320353Y7032D01*
X320554Y7518D01*
D02*
G37*
G36*
X317754D02*
X316454D01*
X316655Y7032D01*
X317268Y6419D01*
X317754Y6218D01*
Y7518D01*
D02*
G37*
%LPD*%
G36*
X376378Y101575D02*
Y97244D01*
X375984Y96850D01*
X364567D01*
X364173Y97244D01*
Y101575D01*
X364567Y101969D01*
X375984D01*
X376378Y101575D01*
D02*
G37*
G36*
X385039Y84252D02*
Y72441D01*
X384646Y72047D01*
X381102D01*
X380709Y72441D01*
Y84252D01*
X381496Y85039D01*
X384252D01*
X385039Y84252D01*
D02*
G37*
G36*
X322441Y25591D02*
Y15354D01*
X321260Y14173D01*
X316535D01*
X315748Y14961D01*
X315748Y25591D01*
X316535Y26378D01*
X321654Y26378D01*
X322441Y25591D01*
D02*
G37*
%LPC*%
G36*
X360030Y17414D02*
X357980D01*
Y15014D01*
X360030D01*
Y17414D01*
D02*
G37*
G36*
X356980D02*
X354930D01*
Y15014D01*
X356980D01*
Y17414D01*
D02*
G37*
%LPD*%
D10*
X318504Y17520D02*
D03*
X325984D02*
D03*
X333465Y112402D02*
D03*
X325984D02*
D03*
X326181Y104527D02*
D03*
X333661D02*
D03*
D14*
X318898Y24409D02*
D03*
Y31890D02*
D03*
X335433Y49606D02*
D03*
Y42126D02*
D03*
X327165Y49606D02*
D03*
Y42126D02*
D03*
X318898Y49606D02*
D03*
Y42126D02*
D03*
D15*
X340945Y62795D02*
D03*
X347245D02*
D03*
X376378Y74213D02*
D03*
X382678D02*
D03*
X318898Y80905D02*
D03*
X312598D02*
D03*
X318898Y86024D02*
D03*
X312598D02*
D03*
X339370Y24213D02*
D03*
X345670D02*
D03*
D18*
X365748Y75394D02*
D03*
Y69095D02*
D03*
X360236Y80905D02*
D03*
Y87205D02*
D03*
X365748D02*
D03*
Y80905D02*
D03*
X360236Y75394D02*
D03*
Y69094D02*
D03*
X365748Y99016D02*
D03*
Y92716D02*
D03*
X360236Y92716D02*
D03*
Y99016D02*
D03*
X353937D02*
D03*
Y92716D02*
D03*
X303543Y66535D02*
D03*
Y72835D02*
D03*
X319291Y97835D02*
D03*
Y91535D02*
D03*
X314173Y91535D02*
D03*
Y97835D02*
D03*
X357480Y17914D02*
D03*
Y11614D02*
D03*
X333465Y31890D02*
D03*
Y25590D02*
D03*
X326772Y31890D02*
D03*
Y25590D02*
D03*
X333465Y17520D02*
D03*
Y11220D02*
D03*
D21*
X309055Y73032D02*
D03*
X318898D02*
D03*
D44*
X382480Y81299D02*
D03*
X371063D02*
D03*
X339370Y30906D02*
D03*
X350787D02*
D03*
D45*
X51968Y143307D02*
Y153543D01*
Y143307D02*
X58268Y137008D01*
X343264Y72874D02*
X347087D01*
X338189Y75389D02*
X338775Y74803D01*
X341335D02*
X343264Y72874D01*
X338775Y74803D02*
X341335D01*
X338189Y75389D02*
Y120866D01*
X357480Y133858D02*
X359055Y132283D01*
X351181Y133858D02*
X357480D01*
X338189Y120866D02*
X351181Y133858D01*
X359055Y121079D02*
Y132283D01*
X353528Y115551D02*
X359055Y121079D01*
X341902Y77874D02*
X347087D01*
X341024Y117189D02*
X353528Y129693D01*
X341024Y78753D02*
Y117189D01*
Y78753D02*
X341902Y77874D01*
X347087D02*
X350909D01*
X353390Y75394D02*
X360236D01*
X350909Y77874D02*
X353390Y75394D01*
X357186Y80905D02*
X360236D01*
X355217Y82874D02*
X357186Y80905D01*
X347087Y82874D02*
X355217D01*
X340945Y62795D02*
Y70866D01*
X342953Y72874D01*
X326142Y57323D02*
Y67874D01*
X345670Y24213D02*
X354921D01*
X357480Y17914D02*
Y21654D01*
X354921Y24213D02*
X357480Y21654D01*
X345670Y17989D02*
Y24213D01*
X343035Y15354D02*
X345670Y17989D01*
X339370Y15354D02*
X343035D01*
X325984Y17520D02*
X333465D01*
Y25590D01*
X326772D02*
X333465D01*
X339370Y11614D02*
X344791D01*
X345669Y12493D01*
Y13295D01*
X346548Y14173D01*
X346768D01*
X346840Y14245D01*
X348728D01*
X349606Y15124D01*
Y19094D01*
X326772Y31890D02*
X333465D01*
X318898D02*
X326772D01*
X307087D02*
X318898D01*
X275394Y180512D02*
Y226287D01*
X65746Y146852D02*
X69293D01*
X118110Y195669D01*
Y224410D01*
X236794Y216420D02*
X236959Y216585D01*
X221654Y106299D02*
X236670Y121316D01*
X239370Y168234D02*
Y214104D01*
X236670Y215263D02*
X236794Y215387D01*
X239301Y214173D02*
X239370Y214104D01*
X236794Y215387D02*
Y216420D01*
X236670Y121316D02*
Y215263D01*
X240398Y121501D02*
Y167206D01*
X239370Y168234D02*
X240398Y167206D01*
X254043Y247638D02*
X275394Y226287D01*
X141339Y247638D02*
X254043D01*
X118110Y224410D02*
X141339Y247638D01*
X226378Y105512D02*
Y107480D01*
X240398Y121501D01*
X221654Y96457D02*
Y106299D01*
X58268Y137008D02*
X112205D01*
D46*
X318504Y8268D02*
Y17520D01*
X344206Y42126D02*
X345670Y40661D01*
Y24213D02*
Y40661D01*
X335433Y42126D02*
X344206D01*
X181496Y61122D02*
X261122D01*
X264961Y64961D01*
Y65748D01*
D47*
X46457Y125197D02*
Y155905D01*
X43701Y128740D02*
Y156299D01*
X47638Y160236D01*
X56299D01*
X46457Y155905D02*
X48819Y158268D01*
X257087Y129921D02*
Y151575D01*
Y129921D02*
X271654Y115354D01*
X226434Y78740D02*
X232677Y84983D01*
Y104213D01*
X155905Y78740D02*
X226434D01*
X232677Y104213D02*
X244882Y116418D01*
X216142Y85039D02*
Y169685D01*
X218110Y83071D02*
X225984D01*
X216142Y85039D02*
X218110Y83071D01*
X216142Y169685D02*
X225197Y178740D01*
X48819Y158268D02*
X55118D01*
X57630Y146307D02*
X62992Y140945D01*
X57630Y146307D02*
Y155756D01*
X62992Y140945D02*
X70472D01*
X93307Y163779D02*
X207480D01*
X70472Y140945D02*
X93307Y163779D01*
X55118Y158268D02*
X57630Y155756D01*
X56299Y160236D02*
X59380Y157156D01*
Y147707D02*
Y157156D01*
Y147707D02*
X63779Y143307D01*
X69291D01*
X93307Y167323D02*
X205906D01*
X69291Y143307D02*
X93307Y167323D01*
X244882Y116418D02*
Y137795D01*
X188189Y83071D02*
X214046Y108928D01*
X166929Y83071D02*
X188189D01*
X214046Y108928D02*
Y172313D01*
X231102Y189370D01*
X225197Y178740D02*
X231496D01*
D48*
X288187Y153687D02*
G03*
X289656Y155157I0J1470D01*
G01*
X287668Y153687D02*
G03*
X287668Y151417I0J-1135D01*
G01*
X289656Y149948D02*
G03*
X288187Y151417I-1470J0D01*
G01*
X289656Y155157D02*
Y159391D01*
X287668Y153687D02*
X288187D01*
X287668Y151417D02*
X288187D01*
X289656Y149213D02*
Y149948D01*
Y159391D02*
Y182377D01*
Y106480D02*
Y149213D01*
Y182377D02*
Y185647D01*
X285003Y190301D02*
X289656Y185647D01*
X244827Y105619D02*
X288795D01*
X244989Y102289D02*
X245850Y103150D01*
X289818D01*
X242520Y103312D02*
X244827Y105619D01*
X244989Y78060D02*
Y102289D01*
X289818Y103150D02*
X292126Y105457D01*
Y186670D01*
X288795Y105619D02*
X289656Y106480D01*
X242520Y79083D02*
Y103312D01*
X286026Y192770D02*
X292126Y186670D01*
X224659Y73730D02*
X237166D01*
X224659Y71260D02*
X238189D01*
X244989Y78060D01*
X237166Y73730D02*
X242520Y79083D01*
X282418Y193020D02*
X282668Y192770D01*
X282283Y193020D02*
X282418D01*
X282668Y192770D02*
X286026D01*
X224410Y71011D02*
X224659Y71260D01*
X282418Y190051D02*
X282668Y190301D01*
X285003D01*
X282283Y190051D02*
X282418D01*
X224410Y73979D02*
X224659Y73730D01*
D51*
X307087Y49606D02*
Y57874D01*
X303543Y61417D02*
X307087Y57874D01*
X303543Y61417D02*
Y66535D01*
X326142Y97874D02*
X329965D01*
X335433Y92405D01*
Y49606D02*
Y92405D01*
Y49606D02*
X349606D01*
X357186Y69094D02*
X360236D01*
X355966Y67874D02*
X357186Y69094D01*
X347087Y67874D02*
X355966D01*
X375000Y69095D02*
X376378Y70472D01*
X365748Y69095D02*
X375000D01*
X376378Y70472D02*
Y74213D01*
X306299Y87195D02*
Y95669D01*
X308465Y97835D02*
X314173D01*
X306299Y95669D02*
X308465Y97835D01*
X306299Y87195D02*
X307471Y86024D01*
X312598D01*
X318670Y129693D02*
X339386D01*
X314173Y125197D02*
X318670Y129693D01*
X314173Y97835D02*
Y125197D01*
X333465Y112402D02*
Y120473D01*
X339386Y126393D02*
Y129693D01*
X333465Y120473D02*
X339386Y126393D01*
X350787Y30906D02*
X362008D01*
X364567Y12992D02*
Y28346D01*
X362008Y30906D02*
X364567Y28346D01*
X349606Y49606D02*
X350787Y48425D01*
Y30906D02*
Y48425D01*
X363189Y11614D02*
X364567Y12992D01*
X357480Y11614D02*
X363189D01*
X349606D02*
X357480D01*
D54*
X240118Y389331D02*
X245118Y394331D01*
Y403543D01*
X192756Y394331D02*
Y403543D01*
X187756Y389331D02*
X192756Y394331D01*
D56*
X353528Y115551D02*
D03*
Y129693D02*
D03*
X339386D02*
D03*
D57*
X13386Y215551D02*
D03*
X185827Y18602D02*
D03*
D58*
X31102Y215551D02*
D03*
X204724Y48917D02*
D03*
D59*
X43701Y196653D02*
D03*
X185827Y36319D02*
D03*
D60*
X55905Y219882D02*
D03*
D61*
X133858Y266142D02*
D03*
X94488D02*
D03*
X74803Y344882D02*
D03*
X153543D02*
D03*
X240118Y319331D02*
D03*
Y359331D02*
D03*
Y389331D02*
D03*
X270118Y319331D02*
D03*
Y379331D02*
D03*
X187756Y319331D02*
D03*
Y359331D02*
D03*
Y389331D02*
D03*
X217756Y319331D02*
D03*
Y379331D02*
D03*
D62*
X307087Y20079D02*
D03*
Y25984D02*
D03*
Y31890D02*
D03*
Y37795D02*
D03*
Y43701D02*
D03*
Y49606D02*
D03*
X281496Y63386D02*
D03*
Y69291D02*
D03*
Y75197D02*
D03*
Y81102D02*
D03*
Y87008D02*
D03*
Y92913D02*
D03*
D63*
X152235Y108535D02*
D03*
X138316Y94615D02*
D03*
X35433Y274803D02*
D03*
X15748D02*
D03*
X35433Y329921D02*
D03*
X15748D02*
D03*
D64*
X181496Y61122D02*
D03*
D65*
X245118Y403543D02*
D03*
X265118D02*
D03*
X192756D02*
D03*
X212756D02*
D03*
X15748Y400000D02*
D03*
Y380000D02*
D03*
D66*
X22244Y150591D02*
D03*
Y170276D02*
D03*
D67*
X35433Y400000D02*
D03*
X153543D02*
D03*
D68*
X51968Y153543D02*
D03*
X257087Y151575D02*
D03*
X271654Y115354D02*
D03*
X253544Y36024D02*
D03*
X253543Y56889D02*
D03*
X224410Y73979D02*
D03*
Y71011D02*
D03*
X155905Y78740D02*
D03*
X244882Y137795D02*
D03*
X166929Y83071D02*
D03*
X231102Y189370D02*
D03*
X225984Y83071D02*
D03*
X231496Y178740D02*
D03*
X282283Y193020D02*
D03*
Y190051D02*
D03*
X179134Y231102D02*
D03*
X264961Y65748D02*
D03*
D69*
X355966Y67874D02*
D03*
X327165Y38189D02*
D03*
X326142Y57323D02*
D03*
X318898Y38189D02*
D03*
X318504Y8268D02*
D03*
X335433Y38189D02*
D03*
X189764Y154331D02*
D03*
X181890Y158661D02*
D03*
X201575Y170472D02*
D03*
X221654Y216535D02*
D03*
X39764Y220079D02*
D03*
Y227953D02*
D03*
Y212205D02*
D03*
X218110Y300394D02*
D03*
X162205Y153150D02*
D03*
Y149213D02*
D03*
X166142D02*
D03*
Y153150D02*
D03*
Y157087D02*
D03*
Y161024D02*
D03*
Y177559D02*
D03*
Y173622D02*
D03*
X266535Y208661D02*
D03*
X240551Y33858D02*
D03*
X248819Y113386D02*
D03*
X264173Y157087D02*
D03*
X283465Y131890D02*
D03*
Y123228D02*
D03*
X260630Y97638D02*
D03*
X268504D02*
D03*
X252756D02*
D03*
X275394Y180512D02*
D03*
X185039Y120866D02*
D03*
Y128740D02*
D03*
X245275Y177559D02*
D03*
X227559Y197862D02*
D03*
X247638Y274410D02*
D03*
X263386Y294882D02*
D03*
Y287008D02*
D03*
X218110Y284646D02*
D03*
Y292520D02*
D03*
X180709Y213386D02*
D03*
Y205512D02*
D03*
Y197638D02*
D03*
Y189764D02*
D03*
Y181890D02*
D03*
Y174016D02*
D03*
X205512Y244488D02*
D03*
X197638D02*
D03*
X189764D02*
D03*
X181890D02*
D03*
X252756Y78740D02*
D03*
X268504D02*
D03*
X260630D02*
D03*
X208268Y90158D02*
D03*
X15748Y282677D02*
D03*
Y290551D02*
D03*
Y298425D02*
D03*
Y306299D02*
D03*
Y314173D02*
D03*
Y322047D02*
D03*
X141339Y200394D02*
D03*
X132677Y202756D02*
D03*
X124803D02*
D03*
X37795Y112992D02*
D03*
Y109055D02*
D03*
Y105118D02*
D03*
X33858D02*
D03*
Y109055D02*
D03*
Y112992D02*
D03*
Y116929D02*
D03*
Y120866D02*
D03*
X65746Y146852D02*
D03*
X36220Y256693D02*
D03*
X28346D02*
D03*
X20472D02*
D03*
X11811Y33268D02*
D03*
X43701Y128740D02*
D03*
X46457Y125197D02*
D03*
X72047Y173228D02*
D03*
X65748D02*
D03*
X71260Y42913D02*
D03*
X59842Y68898D02*
D03*
X55905D02*
D03*
X63779D02*
D03*
X67716D02*
D03*
X71653D02*
D03*
X75590D02*
D03*
X51968D02*
D03*
X48031D02*
D03*
Y87795D02*
D03*
X51968D02*
D03*
X75590D02*
D03*
X71653D02*
D03*
X67716D02*
D03*
X63779D02*
D03*
X55905D02*
D03*
X59842D02*
D03*
X30315Y50787D02*
D03*
Y46850D02*
D03*
Y42913D02*
D03*
Y38976D02*
D03*
Y35039D02*
D03*
Y31102D02*
D03*
Y27165D02*
D03*
X205906Y167323D02*
D03*
X207480Y163779D02*
D03*
X48819Y30709D02*
D03*
X236959Y216585D02*
D03*
X239301Y214173D02*
D03*
X259252Y207086D02*
D03*
X226378Y105512D02*
D03*
X221653Y111812D02*
D03*
X221654Y96457D02*
D03*
X200394Y134646D02*
D03*
X211615Y171654D02*
D03*
X48819Y26772D02*
D03*
X237795Y225197D02*
D03*
X255511Y164567D02*
D03*
X268110Y138583D02*
D03*
X61811Y155512D02*
D03*
X65354D02*
D03*
X108268Y140945D02*
D03*
Y133071D02*
D03*
X112205Y137008D02*
D03*
X68898Y155512D02*
D03*
X72441D02*
D03*
X50000Y213386D02*
D03*
X70079Y223622D02*
D03*
Y225590D02*
D03*
Y227559D02*
D03*
X50000Y211417D02*
D03*
Y209449D02*
D03*
D105*
X372835Y88386D02*
D03*
Y99803D02*
D03*
D106*
X326142Y97874D02*
D03*
Y92874D02*
D03*
Y87874D02*
D03*
Y82874D02*
D03*
Y77874D02*
D03*
Y72874D02*
D03*
Y67874D02*
D03*
X347087D02*
D03*
Y72874D02*
D03*
Y77874D02*
D03*
Y82874D02*
D03*
Y87874D02*
D03*
Y92874D02*
D03*
Y97874D02*
D03*
D107*
X339370Y11614D02*
D03*
Y15354D02*
D03*
Y19094D02*
D03*
X349606D02*
D03*
Y11614D02*
D03*
D108*
X108268Y125984D02*
Y133071D01*
Y125984D02*
X116535Y117717D01*
Y70866D02*
Y117717D01*
Y70866D02*
X126279Y61122D01*
X181496D01*
%TF.MD5,c8e65c1b05359d3a16f7b4a7466e9e76*%
M02*
