M48
;Layer_Color=9474304
;FILE_FORMAT=2:5
INCH,LZ
;TYPE=PLATED
T01F00S00C0.01181
T02F00S00C0.01378
T03F00S00C0.01968
T04F00S00C0.03150
T05F00S00C0.03425
T06F00S00C0.03543
T07F00S00C0.03937
T10F00S00C0.06890
;TYPE=NON_PLATED
T11F00S00C0.08268
%
T01
X0253544Y0036024
X0253543Y0056889
X0264961Y0065748
X022441Y0071011
Y0073979
X0225984Y0083071
X0244882Y0137795
X0257087Y0151575
X0271654Y0115354
X0282283Y0190051
Y019302
X0231102Y018937
X0231496Y017874
X0166929Y0083071
X0155905Y007874
X0051968Y0153543
X0179134Y0231102
T02
X0011811Y0033268
X0030315Y0035039
Y0038976
Y0042913
Y0031102
Y0027165
X0048819Y0026772
Y0030709
X007126Y0042913
X0240551Y0033858
X0318898Y0038189
X0327165
X0335433
X0318504Y0008268
X0326142Y0057323
X0355966Y0067874
X0268504Y007874
X026063
X0252756
Y0097638
X026063
X0268504
X0248819Y0113386
X0221653Y0111812
X0226378Y0105512
X0221654Y0096457
X0283465Y0123228
Y013189
X026811Y0138583
X0264173Y0157087
X0255511Y0164567
X0245275Y0177559
X0275394Y0180512
X0227559Y0197862
X0211615Y0171654
X0205906Y0167323
X020748Y0163779
X0201575Y0170472
X0180709Y0174016
Y018189
Y0189764
Y0197638
X0166142Y0177559
Y0173622
Y0161024
Y0157087
Y015315
X0162205
Y0149213
X0166142
X018189Y0158661
X0189764Y0154331
X0185039Y012874
Y0120866
X0200394Y0134646
X0208268Y0090158
X007559Y0087795
X0071653
X0067716
X0063779
X0059842
Y0068898
X0063779
X0067716
X0071653
X007559
X0065746Y0146852
X0065354Y0155512
X0061811
X0068898
X0072441
X0072047Y0173228
X0065748
X0108268Y0140945
X0112205Y0137008
X0108268Y0133071
X0141339Y0200394
X0043701Y012874
X0046457Y0125197
X0033858Y0120866
Y0116929
Y0112992
X0037795
Y0109055
Y0105118
X0033858
Y0109055
X0048031Y0087795
X0051968
X0055905
Y0068898
X0051968
X0048031
X0030315Y0050787
Y004685
X0039764Y0212205
Y0220079
Y0227953
X005Y0213386
Y0211417
Y0209449
X003622Y0256693
X0028346
X0020472
X0015748Y0282677
Y0290551
Y0298425
Y0306299
Y0314173
Y0322047
X0070079Y0227559
Y022559
Y0223622
X0124803Y0202756
X0132677
X0180709Y0205512
Y0213386
X018189Y0244488
X0189764
X0197638
X0205512
X0221654Y0216535
X0236959Y0216585
X0239301Y0214173
X0237795Y0225197
X0259252Y0207086
X0266535Y0208661
X0263386Y0287008
Y0294882
X0247638Y027441
X021811Y0284646
Y029252
Y0300394
T03
X0353528Y0115551
Y0129693
X0339386
T04
X0138316Y0094615
X0152235Y0108535
X0022244Y0150591
Y0170276
X0015748Y0274803
X0035433
Y0329921
X0015748
T05
X0307087Y0020079
Y0025984
Y003189
Y0037795
Y0043701
Y0049606
X0281496Y0063386
Y0069291
Y0075197
Y0081102
Y0087008
Y0092913
T06
X0014173Y0011614
X0025984
X0094488Y0266142
X0133858
X0153543Y0344882
X0187756Y0319331
X0074803Y0344882
X0217756Y0319331
X0240118
X0270118
Y0379331
X0240118Y0389331
Y0359331
X0217756Y0379331
X0187756Y0389331
Y0359331
T07
X0153543Y04
X0035433
T10
X0212756Y0403543
X0245118
X0265118
X0192756
X0015748Y04
Y038
T11
X0185827Y0018602
X0013386Y0215551
M30
